<svg width="376" height="813" viewBox="0 0 376 813" fill="none" xmlns="http://www.w3.org/2000/svg">
<g clip-path="url(#clip0_5_9880)">
<rect width="375" height="812" transform="translate(0.456543 0.268066)" fill="#F7F4F2"/>
<rect x="121.457" y="799.268" width="134" height="5" rx="2.5" fill="#4F3422"/>
<rect x="308.457" y="18.2681" width="3" height="10" rx="1.5" fill="#252727"/>
<rect x="303.457" y="20.2681" width="3" height="8" rx="1.5" fill="#252727"/>
<rect x="298.457" y="22.2681" width="3" height="6" rx="1.5" fill="#252727"/>
<rect x="293.457" y="24.2681" width="3" height="4" rx="1.5" fill="#252727"/>
<path opacity="0.35" d="M336.957 23.2682C336.957 20.4148 339.27 18.1016 342.123 18.1016H352.79C355.643 18.1016 357.957 20.4148 357.957 23.2682C357.957 26.1217 355.643 28.4349 352.79 28.4349H342.123C339.27 28.4349 336.957 26.1217 336.957 23.2682Z" stroke="#252727"/>
<path opacity="0.4" d="M359.457 21.2681V25.2681C360.261 24.9293 360.785 24.1412 360.785 23.2681C360.785 22.3949 360.261 21.6068 359.457 21.2681Z" fill="#252727"/>
<path d="M338.457 23.2682C338.457 21.2432 340.098 19.6016 342.123 19.6016H352.79C354.815 19.6016 356.457 21.2432 356.457 23.2682C356.457 25.2933 354.815 26.9349 352.79 26.9349H342.123C340.098 26.9349 338.457 25.2933 338.457 23.2682Z" fill="#252727"/>
<path d="M35.3862 28.0532L37.643 24.2102C37.0893 24.2433 36.5607 24.1689 36.0574 23.9871C35.5596 23.8053 35.1149 23.5353 34.7234 23.1772C34.3319 22.819 34.0215 22.3948 33.7921 21.9044C33.5684 21.4141 33.4565 20.8824 33.4565 20.3094C33.4565 19.7529 33.5628 19.2323 33.7754 18.7474C33.9879 18.257 34.2815 17.8273 34.6563 17.4581C35.0366 17.0835 35.4729 16.7915 35.9651 16.5821C36.4629 16.3727 36.997 16.2681 37.5675 16.2681C38.3114 16.2681 38.991 16.4499 39.6062 16.8135C40.227 17.1772 40.722 17.6648 41.0912 18.2763C41.4659 18.8879 41.6533 19.5656 41.6533 20.3094C41.6533 20.6785 41.6058 21.0284 41.5107 21.359C41.4212 21.684 41.2786 22.0146 41.0828 22.3507L37.7521 28.0532H35.3862ZM37.5507 22.3342C37.9534 22.3342 38.3086 22.2378 38.6162 22.0449C38.9294 21.8521 39.1727 21.6014 39.3461 21.2929C39.5195 20.9843 39.6062 20.6537 39.6062 20.3011C39.6062 19.9154 39.5111 19.5711 39.321 19.2681C39.1308 18.9595 38.8791 18.7199 38.5659 18.5491C38.2527 18.3727 37.9199 18.2846 37.5675 18.2846C37.1648 18.2846 36.8068 18.381 36.4936 18.5739C36.186 18.7612 35.9427 19.0091 35.7637 19.3177C35.5847 19.6262 35.4952 19.954 35.4952 20.3011C35.4952 20.6703 35.5847 21.0091 35.7637 21.3177C35.9483 21.6262 36.1944 21.8741 36.502 22.0615C36.8152 22.2433 37.1648 22.3342 37.5507 22.3342Z" fill="#252727"/>
<path d="M43.7478 21.8631C43.457 21.8631 43.2081 21.7639 43.0012 21.5656C42.7998 21.3617 42.6991 21.1138 42.6991 20.8218C42.6991 20.5408 42.7998 20.2984 43.0012 20.0945C43.2081 19.8907 43.457 19.7887 43.7478 19.7887C44.0387 19.7887 44.2876 19.8907 44.4945 20.0945C44.7015 20.2984 44.8049 20.5408 44.8049 20.8218C44.8049 21.1138 44.7015 21.3617 44.4945 21.5656C44.2876 21.7639 44.0387 21.8631 43.7478 21.8631ZM43.7478 28.2681C43.457 28.2681 43.2081 28.1689 43.0012 27.9705C42.7998 27.7667 42.6991 27.5188 42.6991 27.2267C42.6991 26.9458 42.7998 26.7033 43.0012 26.4995C43.2081 26.2956 43.457 26.1937 43.7478 26.1937C44.0387 26.1937 44.2876 26.2956 44.4945 26.4995C44.7015 26.7033 44.8049 26.9458 44.8049 27.2267C44.8049 27.5188 44.7015 27.7667 44.4945 27.9705C44.2876 28.1689 44.0387 28.2681 43.7478 28.2681Z" fill="#252727"/>
<path d="M51.3504 28.0532V25.2515H46.3501V23.2267L50.8722 16.4829H53.3975V23.235H54.3874V25.2515H53.3975V28.0532H51.3504ZM48.7244 23.2267L51.3504 23.235L51.342 19.235L48.7244 23.2267Z" fill="#252727"/>
<path d="M57.4095 28.0532V18.4995H55.9329L56.4866 16.4829H59.4565V28.0532H57.4095Z" fill="#252727"/>
<path d="M322.042 26.8539C322.417 26.4788 322.926 26.2681 323.456 26.2681C323.987 26.2681 324.495 26.4788 324.871 26.8539M319.214 24.0254C319.771 23.4683 320.432 23.0263 321.16 22.7248C321.888 22.4233 322.668 22.2681 323.456 22.2681C324.244 22.2681 325.024 22.4233 325.752 22.7248C326.48 23.0263 327.142 23.4683 327.699 24.0254M316.385 21.197C317.314 20.2684 318.416 19.5318 319.629 19.0293C320.843 18.5267 322.143 18.2681 323.456 18.2681C324.77 18.2681 326.07 18.5267 327.283 19.0293C328.496 19.5318 329.599 20.2684 330.527 21.197" stroke="#252727" stroke-width="2" stroke-linecap="round"/>
<path d="M182.476 83.4668C182.476 83.4668 193.061 97.942 208.26 83.8286C208.26 83.8286 218.393 103.914 198.942 118.479C198.942 118.479 178.405 105.904 165.015 128.34C165.015 128.34 165.83 104.274 187.452 98.8466C187.452 98.8466 175.872 97.0374 166.915 108.527C166.915 108.527 166.011 92.1511 182.476 83.4668Z" fill="#B080F0"/>
<path d="M195.556 83.4682C199.754 83.4682 203.156 80.0656 203.156 75.8682C203.156 71.6707 199.754 68.2681 195.556 68.2681C191.359 68.2681 187.956 71.6707 187.956 75.8682C187.956 80.0656 191.359 83.4682 195.556 83.4682Z" fill="#B080F0"/>
<path d="M83.0529 173.34L77.8029 152.34H82.3029L85.8729 169.41H85.9329L90.1029 152.34H94.9029L99.0729 169.41H99.1329L102.643 152.34H107.143L101.833 173.34H96.4029L92.4729 157.68H92.4129L88.4829 173.34H83.0529ZM114.763 173.7C113.223 173.7 111.863 173.38 110.683 172.74C109.503 172.1 108.583 171.21 107.923 170.07C107.263 168.91 106.933 167.57 106.933 166.05C106.933 164.49 107.253 163.12 107.893 161.94C108.553 160.74 109.473 159.8 110.653 159.12C111.833 158.44 113.203 158.1 114.763 158.1C116.243 158.1 117.553 158.42 118.693 159.06C119.833 159.7 120.723 160.58 121.363 161.7C122.003 162.8 122.323 164.06 122.323 165.48C122.323 165.68 122.323 165.91 122.323 166.17C122.323 166.41 122.303 166.66 122.263 166.92H109.933V164.4H118.063C118.003 163.52 117.663 162.81 117.043 162.27C116.443 161.73 115.693 161.46 114.793 161.46C114.113 161.46 113.483 161.61 112.903 161.91C112.343 162.21 111.893 162.67 111.553 163.29C111.233 163.89 111.073 164.67 111.073 165.63V166.5C111.073 167.26 111.223 167.93 111.523 168.51C111.843 169.07 112.273 169.51 112.813 169.83C113.373 170.13 114.013 170.28 114.733 170.28C115.433 170.28 116.023 170.13 116.503 169.83C116.983 169.51 117.353 169.1 117.613 168.6H121.903C121.603 169.56 121.113 170.43 120.433 171.21C119.773 171.97 118.963 172.58 118.003 173.04C117.043 173.48 115.963 173.7 114.763 173.7ZM124.78 173.34V151.95H128.98V173.34H124.78ZM139.447 173.7C137.887 173.7 136.517 173.37 135.337 172.71C134.157 172.03 133.237 171.11 132.577 169.95C131.917 168.77 131.587 167.42 131.587 165.9C131.587 164.38 131.917 163.04 132.577 161.88C133.257 160.7 134.187 159.78 135.367 159.12C136.547 158.44 137.907 158.1 139.447 158.1C141.387 158.1 143.017 158.61 144.337 159.63C145.677 160.63 146.527 162.02 146.887 163.8H142.417C142.237 163.12 141.877 162.6 141.337 162.24C140.797 161.86 140.157 161.67 139.417 161.67C138.737 161.67 138.127 161.84 137.587 162.18C137.067 162.5 136.647 162.98 136.327 163.62C136.027 164.26 135.877 165.02 135.877 165.9C135.877 166.56 135.967 167.15 136.147 167.67C136.327 168.17 136.577 168.61 136.897 168.99C137.217 169.35 137.587 169.63 138.007 169.83C138.427 170.03 138.897 170.13 139.417 170.13C139.917 170.13 140.367 170.05 140.767 169.89C141.167 169.71 141.507 169.46 141.787 169.14C142.087 168.82 142.297 168.44 142.417 168H146.887C146.527 169.74 145.677 171.13 144.337 172.17C143.017 173.19 141.387 173.7 139.447 173.7ZM156.632 173.7C155.212 173.7 153.922 173.37 152.762 172.71C151.602 172.03 150.682 171.11 150.002 169.95C149.322 168.77 148.982 167.42 148.982 165.9C148.982 164.38 149.322 163.03 150.002 161.85C150.682 160.67 151.602 159.75 152.762 159.09C153.922 158.43 155.222 158.1 156.662 158.1C158.102 158.1 159.402 158.43 160.562 159.09C161.722 159.75 162.642 160.67 163.322 161.85C164.002 163.01 164.342 164.36 164.342 165.9C164.342 167.42 164.002 168.77 163.322 169.95C162.642 171.11 161.722 172.03 160.562 172.71C159.402 173.37 158.092 173.7 156.632 173.7ZM156.632 170.1C157.272 170.1 157.842 169.95 158.342 169.65C158.862 169.33 159.272 168.86 159.572 168.24C159.892 167.6 160.052 166.82 160.052 165.9C160.052 164.96 159.892 164.18 159.572 163.56C159.272 162.94 158.862 162.48 158.342 162.18C157.842 161.86 157.282 161.7 156.662 161.7C156.062 161.7 155.502 161.86 154.982 162.18C154.462 162.48 154.042 162.94 153.722 163.56C153.422 164.18 153.272 164.96 153.272 165.9C153.272 166.82 153.422 167.6 153.722 168.24C154.042 168.86 154.452 169.33 154.952 169.65C155.472 169.95 156.032 170.1 156.632 170.1ZM166.886 173.34V158.46H170.576L170.936 160.65H170.966C171.446 159.83 172.086 159.2 172.886 158.76C173.686 158.32 174.616 158.1 175.676 158.1C176.416 158.1 177.096 158.2 177.716 158.4C178.336 158.58 178.876 158.87 179.336 159.27C179.816 159.67 180.216 160.18 180.536 160.8H180.596C181.156 159.96 181.876 159.3 182.756 158.82C183.636 158.34 184.656 158.1 185.816 158.1C187.076 158.1 188.136 158.37 188.996 158.91C189.876 159.43 190.546 160.21 191.006 161.25C191.466 162.27 191.696 163.53 191.696 165.03V173.34H187.526V165.42C187.526 164.2 187.296 163.27 186.836 162.63C186.376 161.97 185.646 161.64 184.646 161.64C183.986 161.64 183.406 161.8 182.906 162.12C182.426 162.42 182.056 162.86 181.796 163.44C181.536 164.02 181.406 164.73 181.406 165.57V173.34H177.206V165.42C177.206 164.2 176.976 163.27 176.516 162.63C176.056 161.97 175.316 161.64 174.296 161.64C173.676 161.64 173.126 161.8 172.646 162.12C172.166 162.44 171.786 162.9 171.506 163.5C171.226 164.1 171.086 164.82 171.086 165.66V173.34H166.886ZM201.857 173.7C200.317 173.7 198.957 173.38 197.777 172.74C196.597 172.1 195.677 171.21 195.017 170.07C194.357 168.91 194.027 167.57 194.027 166.05C194.027 164.49 194.347 163.12 194.987 161.94C195.647 160.74 196.567 159.8 197.747 159.12C198.927 158.44 200.297 158.1 201.857 158.1C203.337 158.1 204.647 158.42 205.787 159.06C206.927 159.7 207.817 160.58 208.457 161.7C209.097 162.8 209.417 164.06 209.417 165.48C209.417 165.68 209.417 165.91 209.417 166.17C209.417 166.41 209.397 166.66 209.357 166.92H197.027V164.4H205.157C205.097 163.52 204.757 162.81 204.137 162.27C203.537 161.73 202.787 161.46 201.887 161.46C201.207 161.46 200.577 161.61 199.997 161.91C199.437 162.21 198.987 162.67 198.647 163.29C198.327 163.89 198.167 164.67 198.167 165.63V166.5C198.167 167.26 198.317 167.93 198.617 168.51C198.937 169.07 199.367 169.51 199.907 169.83C200.467 170.13 201.107 170.28 201.827 170.28C202.527 170.28 203.117 170.13 203.597 169.83C204.077 169.51 204.447 169.1 204.707 168.6H208.997C208.697 169.56 208.207 170.43 207.527 171.21C206.867 171.97 206.057 172.58 205.097 173.04C204.137 173.48 203.057 173.7 201.857 173.7ZM224.916 173.34C223.856 173.34 222.916 173.17 222.096 172.83C221.296 172.49 220.666 171.93 220.206 171.15C219.766 170.37 219.546 169.31 219.546 167.97V161.91H217.026V158.46H219.546L220.026 154.38H223.746V158.46H227.676V161.91H223.746V168C223.746 168.68 223.886 169.15 224.166 169.41C224.466 169.67 224.976 169.8 225.696 169.8H227.616V173.34H224.916ZM236.783 173.7C235.363 173.7 234.073 173.37 232.913 172.71C231.753 172.03 230.833 171.11 230.153 169.95C229.473 168.77 229.133 167.42 229.133 165.9C229.133 164.38 229.473 163.03 230.153 161.85C230.833 160.67 231.753 159.75 232.913 159.09C234.073 158.43 235.373 158.1 236.813 158.1C238.253 158.1 239.553 158.43 240.713 159.09C241.873 159.75 242.793 160.67 243.473 161.85C244.153 163.01 244.493 164.36 244.493 165.9C244.493 167.42 244.153 168.77 243.473 169.95C242.793 171.11 241.873 172.03 240.713 172.71C239.553 173.37 238.243 173.7 236.783 173.7ZM236.783 170.1C237.423 170.1 237.993 169.95 238.493 169.65C239.013 169.33 239.423 168.86 239.723 168.24C240.043 167.6 240.203 166.82 240.203 165.9C240.203 164.96 240.043 164.18 239.723 163.56C239.423 162.94 239.013 162.48 238.493 162.18C237.993 161.86 237.433 161.7 236.813 161.7C236.213 161.7 235.653 161.86 235.133 162.18C234.613 162.48 234.193 162.94 233.873 163.56C233.573 164.18 233.423 164.96 233.423 165.9C233.423 166.82 233.573 167.6 233.873 168.24C234.193 168.86 234.603 169.33 235.103 169.65C235.623 169.95 236.183 170.1 236.783 170.1ZM260.139 173.34C259.079 173.34 258.139 173.17 257.319 172.83C256.519 172.49 255.889 171.93 255.429 171.15C254.989 170.37 254.769 169.31 254.769 167.97V161.91H252.249V158.46H254.769L255.249 154.38H258.969V158.46H262.899V161.91H258.969V168C258.969 168.68 259.109 169.15 259.389 169.41C259.689 169.67 260.199 169.8 260.919 169.8H262.839V173.34H260.139ZM265.247 173.34V151.95H269.417V160.77H269.477C269.977 159.93 270.637 159.28 271.457 158.82C272.297 158.34 273.287 158.1 274.427 158.1C275.647 158.1 276.677 158.37 277.517 158.91C278.377 159.43 279.027 160.21 279.467 161.25C279.927 162.27 280.157 163.53 280.157 165.03V173.34H275.987V165.42C275.987 164.2 275.747 163.27 275.267 162.63C274.787 161.97 274.007 161.64 272.927 161.64C272.267 161.64 271.667 161.8 271.127 162.12C270.607 162.44 270.197 162.9 269.897 163.5C269.597 164.1 269.447 164.82 269.447 165.66V173.34H265.247ZM290.314 173.7C288.774 173.7 287.414 173.38 286.234 172.74C285.054 172.1 284.134 171.21 283.474 170.07C282.814 168.91 282.484 167.57 282.484 166.05C282.484 164.49 282.804 163.12 283.444 161.94C284.104 160.74 285.024 159.8 286.204 159.12C287.384 158.44 288.754 158.1 290.314 158.1C291.794 158.1 293.104 158.42 294.244 159.06C295.384 159.7 296.274 160.58 296.914 161.7C297.554 162.8 297.874 164.06 297.874 165.48C297.874 165.68 297.874 165.91 297.874 166.17C297.874 166.41 297.854 166.66 297.814 166.92H285.484V164.4H293.614C293.554 163.52 293.214 162.81 292.594 162.27C291.994 161.73 291.244 161.46 290.344 161.46C289.664 161.46 289.034 161.61 288.454 161.91C287.894 162.21 287.444 162.67 287.104 163.29C286.784 163.89 286.624 164.67 286.624 165.63V166.5C286.624 167.26 286.774 167.93 287.074 168.51C287.394 169.07 287.824 169.51 288.364 169.83C288.924 170.13 289.564 170.28 290.284 170.28C290.984 170.28 291.574 170.13 292.054 169.83C292.534 169.51 292.904 169.1 293.164 168.6H297.454C297.154 169.56 296.664 170.43 295.984 171.21C295.324 171.97 294.514 172.58 293.554 173.04C292.594 173.48 291.514 173.7 290.314 173.7ZM32.374 211.7C31.154 211.7 30.104 211.44 29.224 210.92C28.364 210.38 27.704 209.6 27.244 208.58C26.804 207.54 26.584 206.27 26.584 204.77V196.46H30.754V204.38C30.754 205.6 30.994 206.54 31.474 207.2C31.954 207.84 32.734 208.16 33.814 208.16C34.494 208.16 35.094 208 35.614 207.68C36.134 207.36 36.534 206.9 36.814 206.3C37.114 205.7 37.264 204.98 37.264 204.14V196.46H41.464V211.34H37.834L37.474 208.91H37.444C36.984 209.75 36.324 210.43 35.464 210.95C34.624 211.45 33.594 211.7 32.374 211.7ZM44.5123 211.34V189.95H48.7123V211.34H44.5123ZM58.6094 211.34C57.5494 211.34 56.6094 211.17 55.7894 210.83C54.9894 210.49 54.3594 209.93 53.8994 209.15C53.4594 208.37 53.2394 207.31 53.2394 205.97V199.91H50.7194V196.46H53.2394L53.7194 192.38H57.4394V196.46H61.3694V199.91H57.4394V206C57.4394 206.68 57.5794 207.15 57.8594 207.41C58.1594 207.67 58.6694 207.8 59.3894 207.8H61.3094V211.34H58.6094ZM63.8969 211.34V196.46H68.0969V211.34H63.8969ZM66.0269 194.51C65.2669 194.51 64.6469 194.29 64.1669 193.85C63.6869 193.41 63.4469 192.85 63.4469 192.17C63.4469 191.49 63.6869 190.93 64.1669 190.49C64.6469 190.05 65.2669 189.83 66.0269 189.83C66.7869 189.83 67.4069 190.05 67.8869 190.49C68.3669 190.93 68.6069 191.49 68.6069 192.17C68.6069 192.85 68.3669 193.41 67.8869 193.85C67.4069 194.29 66.7869 194.51 66.0269 194.51ZM71.355 211.34V196.46H75.045L75.405 198.65H75.435C75.915 197.83 76.555 197.2 77.355 196.76C78.155 196.32 79.085 196.1 80.145 196.1C80.885 196.1 81.565 196.2 82.185 196.4C82.805 196.58 83.345 196.87 83.805 197.27C84.285 197.67 84.685 198.18 85.005 198.8H85.065C85.625 197.96 86.345 197.3 87.225 196.82C88.105 196.34 89.125 196.1 90.285 196.1C91.545 196.1 92.605 196.37 93.465 196.91C94.345 197.43 95.015 198.21 95.475 199.25C95.935 200.27 96.165 201.53 96.165 203.03V211.34H91.995V203.42C91.995 202.2 91.765 201.27 91.305 200.63C90.845 199.97 90.115 199.64 89.115 199.64C88.455 199.64 87.875 199.8 87.375 200.12C86.895 200.42 86.525 200.86 86.265 201.44C86.005 202.02 85.875 202.73 85.875 203.57V211.34H81.675V203.42C81.675 202.2 81.445 201.27 80.985 200.63C80.525 199.97 79.785 199.64 78.765 199.64C78.145 199.64 77.595 199.8 77.115 200.12C76.635 200.44 76.255 200.9 75.975 201.5C75.695 202.1 75.555 202.82 75.555 203.66V211.34H71.355ZM103.986 211.7C102.746 211.7 101.726 211.5 100.926 211.1C100.126 210.7 99.5356 210.16 99.1556 209.48C98.7756 208.8 98.5856 208.05 98.5856 207.23C98.5856 206.33 98.8156 205.53 99.2756 204.83C99.7356 204.13 100.446 203.59 101.406 203.21C102.366 202.81 103.576 202.61 105.036 202.61H108.756C108.756 201.89 108.656 201.3 108.456 200.84C108.256 200.38 107.946 200.04 107.526 199.82C107.126 199.6 106.596 199.49 105.936 199.49C105.196 199.49 104.556 199.66 104.016 200C103.476 200.32 103.146 200.82 103.026 201.5H98.9456C99.0656 200.4 99.4256 199.45 100.026 198.65C100.646 197.85 101.466 197.23 102.486 196.79C103.506 196.33 104.666 196.1 105.966 196.1C107.386 196.1 108.616 196.34 109.656 196.82C110.716 197.28 111.526 197.96 112.086 198.86C112.666 199.76 112.956 200.87 112.956 202.19V211.34H109.446L108.996 209.06H108.936C108.696 209.48 108.406 209.85 108.066 210.17C107.746 210.49 107.376 210.77 106.956 211.01C106.556 211.23 106.106 211.4 105.606 211.52C105.106 211.64 104.566 211.7 103.986 211.7ZM105.156 208.46C105.676 208.46 106.136 208.38 106.536 208.22C106.936 208.04 107.276 207.8 107.556 207.5C107.836 207.18 108.056 206.82 108.216 206.42C108.396 206.02 108.516 205.59 108.576 205.13H105.546C104.946 205.13 104.456 205.21 104.076 205.37C103.716 205.51 103.446 205.71 103.266 205.97C103.086 206.23 102.996 206.52 102.996 206.84C102.996 207.2 103.086 207.5 103.266 207.74C103.446 207.98 103.696 208.16 104.016 208.28C104.356 208.4 104.736 208.46 105.156 208.46ZM122.478 211.34C121.418 211.34 120.478 211.17 119.658 210.83C118.858 210.49 118.228 209.93 117.768 209.15C117.328 208.37 117.108 207.31 117.108 205.97V199.91H114.588V196.46H117.108L117.588 192.38H121.308V196.46H125.238V199.91H121.308V206C121.308 206.68 121.448 207.15 121.728 207.41C122.028 207.67 122.538 207.8 123.258 207.8H125.178V211.34H122.478ZM134.524 211.7C132.984 211.7 131.624 211.38 130.444 210.74C129.264 210.1 128.344 209.21 127.684 208.07C127.024 206.91 126.694 205.57 126.694 204.05C126.694 202.49 127.014 201.12 127.654 199.94C128.314 198.74 129.234 197.8 130.414 197.12C131.594 196.44 132.964 196.1 134.524 196.1C136.004 196.1 137.314 196.42 138.454 197.06C139.594 197.7 140.484 198.58 141.124 199.7C141.764 200.8 142.084 202.06 142.084 203.48C142.084 203.68 142.084 203.91 142.084 204.17C142.084 204.41 142.064 204.66 142.024 204.92H129.694V202.4H137.824C137.764 201.52 137.424 200.81 136.804 200.27C136.204 199.73 135.454 199.46 134.554 199.46C133.874 199.46 133.244 199.61 132.664 199.91C132.104 200.21 131.654 200.67 131.314 201.29C130.994 201.89 130.834 202.67 130.834 203.63V204.5C130.834 205.26 130.984 205.93 131.284 206.51C131.604 207.07 132.034 207.51 132.574 207.83C133.134 208.13 133.774 208.28 134.494 208.28C135.194 208.28 135.784 208.13 136.264 207.83C136.744 207.51 137.114 207.1 137.374 206.6H141.664C141.364 207.56 140.874 208.43 140.194 209.21C139.534 209.97 138.724 210.58 137.764 211.04C136.804 211.48 135.724 211.7 134.524 211.7ZM150.804 211.34V189.95H154.974V198.77H155.034C155.534 197.93 156.194 197.28 157.014 196.82C157.854 196.34 158.844 196.1 159.984 196.1C161.204 196.1 162.234 196.37 163.074 196.91C163.934 197.43 164.584 198.21 165.024 199.25C165.484 200.27 165.714 201.53 165.714 203.03V211.34H161.544V203.42C161.544 202.2 161.304 201.27 160.824 200.63C160.344 199.97 159.564 199.64 158.484 199.64C157.824 199.64 157.224 199.8 156.684 200.12C156.164 200.44 155.754 200.9 155.454 201.5C155.154 202.1 155.004 202.82 155.004 203.66V211.34H150.804ZM175.871 211.7C174.331 211.7 172.971 211.38 171.791 210.74C170.611 210.1 169.691 209.21 169.031 208.07C168.371 206.91 168.041 205.57 168.041 204.05C168.041 202.49 168.361 201.12 169.001 199.94C169.661 198.74 170.581 197.8 171.761 197.12C172.941 196.44 174.311 196.1 175.871 196.1C177.351 196.1 178.661 196.42 179.801 197.06C180.941 197.7 181.831 198.58 182.471 199.7C183.111 200.8 183.431 202.06 183.431 203.48C183.431 203.68 183.431 203.91 183.431 204.17C183.431 204.41 183.411 204.66 183.371 204.92H171.041V202.4H179.171C179.111 201.52 178.771 200.81 178.151 200.27C177.551 199.73 176.801 199.46 175.901 199.46C175.221 199.46 174.591 199.61 174.011 199.91C173.451 200.21 173.001 200.67 172.661 201.29C172.341 201.89 172.181 202.67 172.181 203.63V204.5C172.181 205.26 172.331 205.93 172.631 206.51C172.951 207.07 173.381 207.51 173.921 207.83C174.481 208.13 175.121 208.28 175.841 208.28C176.541 208.28 177.131 208.13 177.611 207.83C178.091 207.51 178.461 207.1 178.721 206.6H183.011C182.711 207.56 182.221 208.43 181.541 209.21C180.881 209.97 180.071 210.58 179.111 211.04C178.151 211.48 177.071 211.7 175.871 211.7ZM190.867 211.7C189.627 211.7 188.607 211.5 187.807 211.1C187.007 210.7 186.417 210.16 186.037 209.48C185.657 208.8 185.467 208.05 185.467 207.23C185.467 206.33 185.697 205.53 186.157 204.83C186.617 204.13 187.327 203.59 188.287 203.21C189.247 202.81 190.457 202.61 191.917 202.61H195.637C195.637 201.89 195.537 201.3 195.337 200.84C195.137 200.38 194.827 200.04 194.407 199.82C194.007 199.6 193.477 199.49 192.817 199.49C192.077 199.49 191.437 199.66 190.897 200C190.357 200.32 190.027 200.82 189.907 201.5H185.827C185.947 200.4 186.307 199.45 186.907 198.65C187.527 197.85 188.347 197.23 189.367 196.79C190.387 196.33 191.547 196.1 192.847 196.1C194.267 196.1 195.497 196.34 196.537 196.82C197.597 197.28 198.407 197.96 198.967 198.86C199.547 199.76 199.837 200.87 199.837 202.19V211.34H196.327L195.877 209.06H195.817C195.577 209.48 195.287 209.85 194.947 210.17C194.627 210.49 194.257 210.77 193.837 211.01C193.437 211.23 192.987 211.4 192.487 211.52C191.987 211.64 191.447 211.7 190.867 211.7ZM192.037 208.46C192.557 208.46 193.017 208.38 193.417 208.22C193.817 208.04 194.157 207.8 194.437 207.5C194.717 207.18 194.937 206.82 195.097 206.42C195.277 206.02 195.397 205.59 195.457 205.13H192.427C191.827 205.13 191.337 205.21 190.957 205.37C190.597 205.51 190.327 205.71 190.147 205.97C189.967 206.23 189.877 206.52 189.877 206.84C189.877 207.2 189.967 207.5 190.147 207.74C190.327 207.98 190.577 208.16 190.897 208.28C191.237 208.4 191.617 208.46 192.037 208.46ZM202.726 211.34V189.95H206.926V211.34H202.726ZM216.823 211.34C215.763 211.34 214.823 211.17 214.003 210.83C213.203 210.49 212.573 209.93 212.113 209.15C211.673 208.37 211.453 207.31 211.453 205.97V199.91H208.933V196.46H211.453L211.933 192.38H215.653V196.46H219.583V199.91H215.653V206C215.653 206.68 215.793 207.15 216.073 207.41C216.373 207.67 216.883 207.8 217.603 207.8H219.523V211.34H216.823ZM221.931 211.34V189.95H226.101V198.77H226.161C226.661 197.93 227.321 197.28 228.141 196.82C228.981 196.34 229.971 196.1 231.111 196.1C232.331 196.1 233.361 196.37 234.201 196.91C235.061 197.43 235.711 198.21 236.151 199.25C236.611 200.27 236.841 201.53 236.841 203.03V211.34H232.671V203.42C232.671 202.2 232.431 201.27 231.951 200.63C231.471 199.97 230.691 199.64 229.611 199.64C228.951 199.64 228.351 199.8 227.811 200.12C227.291 200.44 226.881 200.9 226.581 201.5C226.281 202.1 226.131 202.82 226.131 203.66V211.34H221.931ZM255.09 211.7C254.31 211.7 253.6 211.6 252.96 211.4C252.34 211.2 251.78 210.91 251.28 210.53C250.8 210.15 250.38 209.7 250.02 209.18H249.99L249.6 211.34H245.94V189.95H250.14V198.44C250.62 197.8 251.26 197.25 252.06 196.79C252.86 196.33 253.86 196.1 255.06 196.1C256.46 196.1 257.7 196.44 258.78 197.12C259.86 197.8 260.71 198.73 261.33 199.91C261.95 201.07 262.26 202.41 262.26 203.93C262.26 205.41 261.95 206.74 261.33 207.92C260.71 209.1 259.86 210.03 258.78 210.71C257.72 211.37 256.49 211.7 255.09 211.7ZM254.01 208.13C254.79 208.13 255.48 207.95 256.08 207.59C256.68 207.21 257.15 206.71 257.49 206.09C257.83 205.45 258 204.72 258 203.9C258 203.08 257.83 202.35 257.49 201.71C257.15 201.07 256.68 200.57 256.08 200.21C255.48 199.85 254.79 199.67 254.01 199.67C253.23 199.67 252.54 199.85 251.94 200.21C251.34 200.57 250.87 201.07 250.53 201.71C250.19 202.33 250.02 203.06 250.02 203.9C250.02 204.72 250.19 205.45 250.53 206.09C250.87 206.73 251.34 207.23 251.94 207.59C252.54 207.95 253.23 208.13 254.01 208.13ZM272.179 211.7C270.639 211.7 269.279 211.38 268.099 210.74C266.919 210.1 265.999 209.21 265.339 208.07C264.679 206.91 264.349 205.57 264.349 204.05C264.349 202.49 264.669 201.12 265.309 199.94C265.969 198.74 266.889 197.8 268.069 197.12C269.249 196.44 270.619 196.1 272.179 196.1C273.659 196.1 274.969 196.42 276.109 197.06C277.249 197.7 278.139 198.58 278.779 199.7C279.419 200.8 279.739 202.06 279.739 203.48C279.739 203.68 279.739 203.91 279.739 204.17C279.739 204.41 279.719 204.66 279.679 204.92H267.349V202.4H275.479C275.419 201.52 275.079 200.81 274.459 200.27C273.859 199.73 273.109 199.46 272.209 199.46C271.529 199.46 270.899 199.61 270.319 199.91C269.759 200.21 269.309 200.67 268.969 201.29C268.649 201.89 268.489 202.67 268.489 203.63V204.5C268.489 205.26 268.639 205.93 268.939 206.51C269.259 207.07 269.689 207.51 270.229 207.83C270.789 208.13 271.429 208.28 272.149 208.28C272.849 208.28 273.439 208.13 273.919 207.83C274.399 207.51 274.769 207.1 275.029 206.6H279.319C279.019 207.56 278.529 208.43 277.849 209.21C277.189 209.97 276.379 210.58 275.419 211.04C274.459 211.48 273.379 211.7 272.179 211.7ZM282.135 211.34V196.46H285.795L286.125 198.92H286.185C286.645 198.06 287.295 197.38 288.135 196.88C288.975 196.36 290.005 196.1 291.225 196.1C292.485 196.1 293.545 196.37 294.405 196.91C295.265 197.43 295.915 198.21 296.355 199.25C296.815 200.27 297.045 201.53 297.045 203.03V211.34H292.845V203.42C292.845 202.2 292.605 201.27 292.125 200.63C291.645 199.97 290.865 199.64 289.785 199.64C289.125 199.64 288.535 199.8 288.015 200.12C287.495 200.44 287.085 200.9 286.785 201.5C286.485 202.1 286.335 202.82 286.335 203.66V211.34H282.135ZM300.064 211.34V196.46H304.264V211.34H300.064ZM302.194 194.51C301.434 194.51 300.814 194.29 300.334 193.85C299.854 193.41 299.614 192.85 299.614 192.17C299.614 191.49 299.854 190.93 300.334 190.49C300.814 190.05 301.434 189.83 302.194 189.83C302.954 189.83 303.574 190.05 304.054 190.49C304.534 190.93 304.774 191.49 304.774 192.17C304.774 192.85 304.534 193.41 304.054 193.85C303.574 194.29 302.954 194.51 302.194 194.51ZM308.332 211.34V199.94H306.352V196.46H308.332V195.2C308.332 193.9 308.552 192.88 308.992 192.14C309.432 191.38 310.052 190.83 310.852 190.49C311.652 190.13 312.582 189.95 313.642 189.95H315.172V193.52H314.302C313.682 193.52 313.232 193.64 312.952 193.88C312.672 194.12 312.532 194.54 312.532 195.14V196.46H321.922V211.34H317.722V199.94H312.532V211.34H308.332ZM319.822 194.75C319.082 194.75 318.472 194.53 317.992 194.09C317.512 193.63 317.272 193.07 317.272 192.41C317.272 191.73 317.512 191.17 317.992 190.73C318.472 190.29 319.082 190.07 319.822 190.07C320.602 190.07 321.232 190.29 321.712 190.73C322.192 191.17 322.432 191.73 322.432 192.41C322.432 193.07 322.192 193.63 321.712 194.09C321.232 194.53 320.602 194.75 319.822 194.75ZM332.021 211.34C330.961 211.34 330.021 211.17 329.201 210.83C328.401 210.49 327.771 209.93 327.311 209.15C326.871 208.37 326.651 207.31 326.651 205.97V199.91H324.131V196.46H326.651L327.131 192.38H330.851V196.46H334.781V199.91H330.851V206C330.851 206.68 330.991 207.15 331.271 207.41C331.571 207.67 332.081 207.8 332.801 207.8H334.721V211.34H332.021ZM343.338 211.7C341.998 211.7 340.818 211.48 339.798 211.04C338.778 210.6 337.958 210 337.338 209.24C336.738 208.46 336.388 207.58 336.288 206.6H340.458C340.558 206.94 340.728 207.26 340.968 207.56C341.208 207.86 341.518 208.1 341.898 208.28C342.298 208.44 342.758 208.52 343.278 208.52C343.798 208.52 344.218 208.45 344.538 208.31C344.878 208.17 345.128 207.98 345.288 207.74C345.448 207.5 345.528 207.26 345.528 207.02C345.528 206.64 345.408 206.35 345.168 206.15C344.928 205.95 344.578 205.78 344.118 205.64C343.658 205.48 343.118 205.33 342.498 205.19C341.838 205.01 341.168 204.82 340.488 204.62C339.808 204.42 339.188 204.17 338.628 203.87C338.068 203.55 337.618 203.15 337.278 202.67C336.938 202.17 336.768 201.55 336.768 200.81C336.768 199.95 337.008 199.16 337.488 198.44C337.968 197.72 338.668 197.15 339.588 196.73C340.508 196.31 341.618 196.1 342.918 196.1C344.738 196.1 346.178 196.52 347.238 197.36C348.318 198.18 348.948 199.31 349.128 200.75H345.198C345.098 200.27 344.848 199.91 344.448 199.67C344.048 199.41 343.538 199.28 342.918 199.28C342.238 199.28 341.718 199.41 341.358 199.67C340.998 199.91 340.818 200.21 340.818 200.57C340.818 200.83 340.948 201.06 341.208 201.26C341.468 201.46 341.828 201.63 342.288 201.77C342.748 201.91 343.278 202.06 343.878 202.22C344.978 202.48 345.958 202.76 346.818 203.06C347.698 203.36 348.398 203.79 348.918 204.35C349.458 204.91 349.728 205.71 349.728 206.75C349.748 207.69 349.488 208.54 348.948 209.3C348.428 210.04 347.688 210.63 346.728 211.07C345.788 211.49 344.658 211.7 343.338 211.7Z" fill="#2F3636"/>
<path d="M53.8894 254.34V250.18L50.1934 243.14H52.0014L54.8974 249.028H54.4974L57.3774 243.14H59.1694L55.4894 250.18V254.34H53.8894ZM62.75 254.532C61.9927 254.532 61.31 254.356 60.702 254.004C60.1047 253.652 59.63 253.161 59.278 252.532C58.9367 251.892 58.766 251.156 58.766 250.324C58.766 249.471 58.942 248.729 59.294 248.1C59.646 247.46 60.126 246.964 60.734 246.612C61.342 246.26 62.0247 246.084 62.782 246.084C63.55 246.084 64.2327 246.26 64.83 246.612C65.4274 246.964 65.8967 247.455 66.238 248.084C66.59 248.713 66.766 249.455 66.766 250.308C66.766 251.161 66.59 251.903 66.238 252.532C65.8967 253.161 65.422 253.652 64.814 254.004C64.206 254.356 63.518 254.532 62.75 254.532ZM62.75 253.156C63.1874 253.156 63.582 253.049 63.934 252.836C64.2967 252.623 64.5847 252.308 64.798 251.892C65.022 251.465 65.134 250.937 65.134 250.308C65.134 249.679 65.0274 249.156 64.814 248.74C64.6007 248.313 64.3127 247.993 63.95 247.78C63.598 247.567 63.2087 247.46 62.782 247.46C62.3554 247.46 61.9607 247.567 61.598 247.78C61.2354 247.993 60.942 248.313 60.718 248.74C60.5047 249.156 60.398 249.679 60.398 250.308C60.398 250.937 60.5047 251.465 60.718 251.892C60.942 252.308 61.23 252.623 61.582 252.836C61.9447 253.049 62.334 253.156 62.75 253.156ZM71.5442 254.532C70.9148 254.532 70.3655 254.404 69.8962 254.148C69.4375 253.892 69.0802 253.508 68.8242 252.996C68.5788 252.484 68.4562 251.839 68.4562 251.06V246.276H70.0562V250.884C70.0562 251.641 70.2215 252.212 70.5522 252.596C70.8828 252.98 71.3575 253.172 71.9762 253.172C72.3922 253.172 72.7655 253.071 73.0962 252.868C73.4375 252.665 73.7042 252.372 73.8962 251.988C74.0882 251.604 74.1842 251.135 74.1842 250.58V246.276H75.7842V254.34H74.3602L74.2482 252.964C74.0028 253.455 73.6455 253.839 73.1762 254.116C72.7068 254.393 72.1628 254.532 71.5442 254.532ZM77.9108 254.34V246.276H79.3508L79.4948 247.796C79.6761 247.433 79.9108 247.129 80.1988 246.884C80.4868 246.628 80.8228 246.431 81.2068 246.292C81.6015 246.153 82.0495 246.084 82.5508 246.084V247.78H81.9748C81.6441 247.78 81.3295 247.823 81.0308 247.908C80.7321 247.983 80.4655 248.116 80.2308 248.308C80.0068 248.5 79.8308 248.761 79.7028 249.092C79.5748 249.423 79.5108 249.833 79.5108 250.324V254.34H77.9108ZM87.9859 254.34V246.276H89.4259L89.5379 247.412C89.7939 246.996 90.1352 246.671 90.5619 246.436C90.9886 246.201 91.4686 246.084 92.0019 246.084C92.4072 246.084 92.7752 246.143 93.1059 246.26C93.4366 246.367 93.7299 246.532 93.9859 246.756C94.2419 246.98 94.4499 247.257 94.6099 247.588C94.8979 247.119 95.2819 246.751 95.7619 246.484C96.2526 246.217 96.7699 246.084 97.3139 246.084C97.9646 246.084 98.5246 246.217 98.9939 246.484C99.4632 246.74 99.8206 247.129 100.066 247.652C100.311 248.164 100.434 248.804 100.434 249.572V254.34H98.8499V249.732C98.8499 248.985 98.6952 248.42 98.3859 248.036C98.0872 247.652 97.6446 247.46 97.0579 247.46C96.6632 247.46 96.3112 247.561 96.0019 247.764C95.6926 247.967 95.4472 248.26 95.2659 248.644C95.0952 249.028 95.0099 249.497 95.0099 250.052V254.34H93.4099V249.732C93.4099 248.985 93.2552 248.42 92.9459 248.036C92.6472 247.652 92.2046 247.46 91.6179 247.46C91.2446 247.46 90.9032 247.561 90.5939 247.764C90.2846 247.967 90.0392 248.26 89.8579 248.644C89.6766 249.028 89.5859 249.497 89.5859 250.052V254.34H87.9859ZM102.55 254.34V246.276H104.15V254.34H102.55ZM103.366 244.756C103.056 244.756 102.8 244.66 102.598 244.468C102.406 244.276 102.31 244.031 102.31 243.732C102.31 243.444 102.406 243.209 102.598 243.028C102.8 242.836 103.056 242.74 103.366 242.74C103.664 242.74 103.915 242.836 104.118 243.028C104.32 243.209 104.422 243.444 104.422 243.732C104.422 244.031 104.32 244.276 104.118 244.468C103.915 244.66 103.664 244.756 103.366 244.756ZM106.374 254.34V246.276H107.814L107.91 247.652C108.166 247.172 108.528 246.793 108.998 246.516C109.467 246.228 110.006 246.084 110.614 246.084C111.254 246.084 111.803 246.212 112.262 246.468C112.72 246.724 113.078 247.113 113.334 247.636C113.59 248.148 113.718 248.793 113.718 249.572V254.34H112.118V249.732C112.118 248.985 111.952 248.42 111.622 248.036C111.291 247.652 110.811 247.46 110.182 247.46C109.766 247.46 109.392 247.561 109.062 247.764C108.731 247.956 108.464 248.244 108.262 248.628C108.07 249.012 107.974 249.481 107.974 250.036V254.34H106.374ZM119.284 254.532C118.516 254.532 117.839 254.351 117.252 253.988C116.665 253.615 116.207 253.113 115.876 252.484C115.556 251.844 115.396 251.119 115.396 250.308C115.396 249.487 115.556 248.761 115.876 248.132C116.207 247.503 116.665 247.007 117.252 246.644C117.849 246.271 118.532 246.084 119.3 246.084C119.929 246.084 120.484 246.212 120.964 246.468C121.444 246.713 121.817 247.065 122.084 247.524V242.82H123.684V254.34H122.244L122.084 253.092C121.924 253.337 121.716 253.572 121.46 253.796C121.204 254.009 120.895 254.185 120.532 254.324C120.169 254.463 119.753 254.532 119.284 254.532ZM119.54 253.14C120.041 253.14 120.484 253.023 120.868 252.788C121.252 252.553 121.545 252.223 121.748 251.796C121.961 251.369 122.068 250.873 122.068 250.308C122.068 249.743 121.961 249.252 121.748 248.836C121.545 248.409 121.252 248.079 120.868 247.844C120.484 247.599 120.041 247.476 119.54 247.476C119.06 247.476 118.628 247.599 118.244 247.844C117.86 248.079 117.561 248.409 117.348 248.836C117.135 249.252 117.028 249.743 117.028 250.308C117.028 250.873 117.135 251.369 117.348 251.796C117.561 252.223 117.86 252.553 118.244 252.788C118.628 253.023 119.06 253.14 119.54 253.14ZM126.24 254.34V245.188C126.24 244.633 126.331 244.18 126.512 243.828C126.704 243.476 126.981 243.22 127.344 243.06C127.707 242.9 128.144 242.82 128.656 242.82H129.6V244.18H128.912C128.528 244.18 128.251 244.26 128.08 244.42C127.92 244.569 127.84 244.836 127.84 245.22V254.34H126.24ZM125.056 247.636V246.276H129.776V247.636H125.056ZM134.298 254.532C133.668 254.532 133.119 254.404 132.65 254.148C132.191 253.892 131.834 253.508 131.578 252.996C131.332 252.484 131.21 251.839 131.21 251.06V246.276H132.81V250.884C132.81 251.641 132.975 252.212 133.306 252.596C133.636 252.98 134.111 253.172 134.73 253.172C135.146 253.172 135.519 253.071 135.85 252.868C136.191 252.665 136.458 252.372 136.65 251.988C136.842 251.604 136.938 251.135 136.938 250.58V246.276H138.538V254.34H137.114L137.002 252.964C136.756 253.455 136.399 253.839 135.93 254.116C135.46 254.393 134.916 254.532 134.298 254.532ZM140.664 254.34V242.82H142.264V254.34H140.664ZM148.427 254.34V242.82H150.027V247.588C150.294 247.119 150.662 246.751 151.131 246.484C151.611 246.217 152.139 246.084 152.715 246.084C153.355 246.084 153.904 246.217 154.363 246.484C154.822 246.74 155.174 247.129 155.419 247.652C155.664 248.164 155.787 248.809 155.787 249.588V254.34H154.203V249.748C154.203 249.001 154.043 248.436 153.723 248.052C153.403 247.657 152.928 247.46 152.299 247.46C151.872 247.46 151.488 247.561 151.147 247.764C150.806 247.967 150.534 248.265 150.331 248.66C150.128 249.044 150.027 249.513 150.027 250.068V254.34H148.427ZM161.417 254.532C160.649 254.532 159.967 254.356 159.369 254.004C158.772 253.652 158.303 253.161 157.961 252.532C157.631 251.903 157.465 251.172 157.465 250.34C157.465 249.487 157.631 248.745 157.961 248.116C158.303 247.476 158.772 246.98 159.369 246.628C159.967 246.265 160.66 246.084 161.449 246.084C162.239 246.084 162.916 246.26 163.481 246.612C164.047 246.964 164.484 247.433 164.793 248.02C165.103 248.596 165.257 249.236 165.257 249.94C165.257 250.047 165.252 250.164 165.241 250.292C165.241 250.409 165.236 250.543 165.225 250.692H158.633V249.556H163.657C163.625 248.884 163.401 248.361 162.985 247.988C162.569 247.604 162.052 247.412 161.433 247.412C160.996 247.412 160.596 247.513 160.233 247.716C159.871 247.908 159.577 248.196 159.353 248.58C159.14 248.953 159.033 249.428 159.033 250.004V250.452C159.033 251.049 159.14 251.556 159.353 251.972C159.577 252.377 159.871 252.687 160.233 252.9C160.596 253.103 160.991 253.204 161.417 253.204C161.929 253.204 162.351 253.092 162.681 252.868C163.012 252.644 163.257 252.34 163.417 251.956H165.017C164.879 252.447 164.644 252.889 164.313 253.284C163.983 253.668 163.572 253.972 163.081 254.196C162.601 254.42 162.047 254.532 161.417 254.532ZM169.643 254.532C168.982 254.532 168.432 254.42 167.995 254.196C167.558 253.972 167.232 253.673 167.019 253.3C166.806 252.916 166.699 252.505 166.699 252.068C166.699 251.535 166.838 251.081 167.115 250.708C167.392 250.324 167.787 250.031 168.299 249.828C168.811 249.625 169.424 249.524 170.139 249.524H172.235C172.235 249.055 172.166 248.665 172.027 248.356C171.888 248.047 171.68 247.817 171.403 247.668C171.136 247.508 170.795 247.428 170.379 247.428C169.899 247.428 169.488 247.545 169.147 247.78C168.806 248.004 168.592 248.34 168.507 248.788H166.907C166.971 248.223 167.163 247.743 167.483 247.348C167.814 246.943 168.235 246.633 168.747 246.42C169.259 246.196 169.803 246.084 170.379 246.084C171.136 246.084 171.771 246.217 172.283 246.484C172.795 246.751 173.179 247.129 173.435 247.62C173.702 248.1 173.835 248.676 173.835 249.348V254.34H172.443L172.315 252.98C172.198 253.193 172.059 253.396 171.899 253.588C171.739 253.78 171.547 253.945 171.323 254.084C171.11 254.223 170.859 254.329 170.571 254.404C170.294 254.489 169.984 254.532 169.643 254.532ZM169.947 253.236C170.288 253.236 170.598 253.167 170.875 253.028C171.152 252.889 171.387 252.703 171.579 252.468C171.782 252.223 171.931 251.951 172.027 251.652C172.134 251.343 172.192 251.028 172.203 250.708V250.66H170.299C169.84 250.66 169.467 250.719 169.179 250.836C168.902 250.943 168.699 251.092 168.571 251.284C168.443 251.476 168.379 251.7 168.379 251.956C168.379 252.223 168.438 252.452 168.555 252.644C168.683 252.825 168.864 252.969 169.099 253.076C169.334 253.183 169.616 253.236 169.947 253.236ZM175.813 254.34V242.82H177.413V254.34H175.813ZM182.874 254.34C182.362 254.34 181.919 254.26 181.546 254.1C181.173 253.94 180.885 253.673 180.682 253.3C180.479 252.927 180.378 252.42 180.378 251.78V247.636H178.986V246.276H180.378L180.57 244.26H181.978V246.276H184.266V247.636H181.978V251.796C181.978 252.255 182.074 252.569 182.266 252.74C182.458 252.9 182.789 252.98 183.258 252.98H184.186V254.34H182.874ZM185.966 254.34V242.82H187.566V247.588C187.833 247.119 188.201 246.751 188.67 246.484C189.15 246.217 189.678 246.084 190.254 246.084C190.894 246.084 191.444 246.217 191.902 246.484C192.361 246.74 192.713 247.129 192.958 247.652C193.204 248.164 193.326 248.809 193.326 249.588V254.34H191.742V249.748C191.742 249.001 191.582 248.436 191.262 248.052C190.942 247.657 190.468 247.46 189.838 247.46C189.412 247.46 189.028 247.561 188.686 247.764C188.345 247.967 188.073 248.265 187.87 248.66C187.668 249.044 187.566 249.513 187.566 250.068V254.34H185.966ZM198.698 254.34L202.81 243.14H204.554L208.666 254.34H206.954L203.674 245.06L200.378 254.34H198.698ZM200.554 251.572L201.002 250.292H206.266L206.714 251.572H200.554ZM210.198 254.34V243.14H211.798V254.34H210.198ZM221.749 254.532C220.971 254.532 220.277 254.356 219.669 254.004C219.061 253.641 218.581 253.145 218.229 252.516C217.888 251.887 217.717 251.156 217.717 250.324C217.717 249.481 217.888 248.745 218.229 248.116C218.581 247.476 219.061 246.98 219.669 246.628C220.277 246.265 220.971 246.084 221.749 246.084C222.731 246.084 223.552 246.34 224.213 246.852C224.875 247.364 225.296 248.057 225.477 248.932H223.813C223.707 248.463 223.461 248.1 223.077 247.844C222.704 247.588 222.256 247.46 221.733 247.46C221.307 247.46 220.912 247.572 220.549 247.796C220.187 248.009 219.893 248.329 219.669 248.756C219.456 249.172 219.349 249.689 219.349 250.308C219.349 250.767 219.413 251.177 219.541 251.54C219.669 251.892 219.84 252.191 220.053 252.436C220.277 252.681 220.533 252.868 220.821 252.996C221.109 253.113 221.413 253.172 221.733 253.172C222.085 253.172 222.4 253.119 222.677 253.012C222.965 252.895 223.205 252.724 223.397 252.5C223.6 252.276 223.739 252.009 223.813 251.7H225.477C225.296 252.553 224.875 253.241 224.213 253.764C223.552 254.276 222.731 254.532 221.749 254.532ZM230.966 254.532C230.208 254.532 229.526 254.356 228.918 254.004C228.32 253.652 227.846 253.161 227.494 252.532C227.152 251.892 226.982 251.156 226.982 250.324C226.982 249.471 227.158 248.729 227.51 248.1C227.862 247.46 228.342 246.964 228.95 246.612C229.558 246.26 230.24 246.084 230.998 246.084C231.766 246.084 232.448 246.26 233.046 246.612C233.643 246.964 234.112 247.455 234.454 248.084C234.806 248.713 234.982 249.455 234.982 250.308C234.982 251.161 234.806 251.903 234.454 252.532C234.112 253.161 233.638 253.652 233.03 254.004C232.422 254.356 231.734 254.532 230.966 254.532ZM230.966 253.156C231.403 253.156 231.798 253.049 232.15 252.836C232.512 252.623 232.8 252.308 233.014 251.892C233.238 251.465 233.35 250.937 233.35 250.308C233.35 249.679 233.243 249.156 233.03 248.74C232.816 248.313 232.528 247.993 232.166 247.78C231.814 247.567 231.424 247.46 230.998 247.46C230.571 247.46 230.176 247.567 229.814 247.78C229.451 247.993 229.158 248.313 228.934 248.74C228.72 249.156 228.614 249.679 228.614 250.308C228.614 250.937 228.72 251.465 228.934 251.892C229.158 252.308 229.446 252.623 229.798 252.836C230.16 253.049 230.55 253.156 230.966 253.156ZM236.8 254.34V246.276H238.24L238.352 247.412C238.608 246.996 238.949 246.671 239.376 246.436C239.802 246.201 240.282 246.084 240.816 246.084C241.221 246.084 241.589 246.143 241.92 246.26C242.25 246.367 242.544 246.532 242.8 246.756C243.056 246.98 243.264 247.257 243.424 247.588C243.712 247.119 244.096 246.751 244.576 246.484C245.066 246.217 245.584 246.084 246.128 246.084C246.778 246.084 247.338 246.217 247.808 246.484C248.277 246.74 248.634 247.129 248.88 247.652C249.125 248.164 249.248 248.804 249.248 249.572V254.34H247.664V249.732C247.664 248.985 247.509 248.42 247.2 248.036C246.901 247.652 246.458 247.46 245.872 247.46C245.477 247.46 245.125 247.561 244.816 247.764C244.506 247.967 244.261 248.26 244.08 248.644C243.909 249.028 243.824 249.497 243.824 250.052V254.34H242.224V249.732C242.224 248.985 242.069 248.42 241.76 248.036C241.461 247.652 241.018 247.46 240.432 247.46C240.058 247.46 239.717 247.561 239.408 247.764C239.098 247.967 238.853 248.26 238.672 248.644C238.49 249.028 238.4 249.497 238.4 250.052V254.34H236.8ZM251.251 257.86V246.276H252.691L252.851 247.524C253.022 247.279 253.235 247.049 253.491 246.836C253.747 246.612 254.051 246.431 254.403 246.292C254.766 246.153 255.187 246.084 255.667 246.084C256.435 246.084 257.107 246.271 257.683 246.644C258.27 247.017 258.723 247.524 259.043 248.164C259.374 248.793 259.539 249.513 259.539 250.324C259.539 251.135 259.374 251.86 259.043 252.5C258.713 253.129 258.254 253.625 257.667 253.988C257.091 254.351 256.419 254.532 255.651 254.532C255.022 254.532 254.467 254.409 253.987 254.164C253.507 253.908 253.129 253.556 252.851 253.108V257.86H251.251ZM255.395 253.14C255.886 253.14 256.318 253.023 256.691 252.788C257.075 252.553 257.374 252.223 257.587 251.796C257.811 251.369 257.923 250.873 257.923 250.308C257.923 249.743 257.811 249.252 257.587 248.836C257.374 248.409 257.075 248.079 256.691 247.844C256.318 247.599 255.886 247.476 255.395 247.476C254.894 247.476 254.451 247.599 254.067 247.844C253.694 248.079 253.401 248.409 253.187 248.836C252.974 249.252 252.867 249.743 252.867 250.308C252.867 250.873 252.974 251.369 253.187 251.796C253.401 252.223 253.694 252.553 254.067 252.788C254.451 253.023 254.894 253.14 255.395 253.14ZM264.016 254.532C263.354 254.532 262.805 254.42 262.368 254.196C261.93 253.972 261.605 253.673 261.392 253.3C261.178 252.916 261.072 252.505 261.072 252.068C261.072 251.535 261.21 251.081 261.488 250.708C261.765 250.324 262.16 250.031 262.672 249.828C263.184 249.625 263.797 249.524 264.512 249.524H266.608C266.608 249.055 266.538 248.665 266.4 248.356C266.261 248.047 266.053 247.817 265.776 247.668C265.509 247.508 265.168 247.428 264.752 247.428C264.272 247.428 263.861 247.545 263.52 247.78C263.178 248.004 262.965 248.34 262.88 248.788H261.28C261.344 248.223 261.536 247.743 261.856 247.348C262.186 246.943 262.608 246.633 263.12 246.42C263.632 246.196 264.176 246.084 264.752 246.084C265.509 246.084 266.144 246.217 266.656 246.484C267.168 246.751 267.552 247.129 267.808 247.62C268.074 248.1 268.208 248.676 268.208 249.348V254.34H266.816L266.688 252.98C266.57 253.193 266.432 253.396 266.272 253.588C266.112 253.78 265.92 253.945 265.696 254.084C265.482 254.223 265.232 254.329 264.944 254.404C264.666 254.489 264.357 254.532 264.016 254.532ZM264.32 253.236C264.661 253.236 264.97 253.167 265.248 253.028C265.525 252.889 265.76 252.703 265.952 252.468C266.154 252.223 266.304 251.951 266.4 251.652C266.506 251.343 266.565 251.028 266.576 250.708V250.66H264.672C264.213 250.66 263.84 250.719 263.552 250.836C263.274 250.943 263.072 251.092 262.944 251.284C262.816 251.476 262.752 251.7 262.752 251.956C262.752 252.223 262.81 252.452 262.928 252.644C263.056 252.825 263.237 252.969 263.472 253.076C263.706 253.183 263.989 253.236 264.32 253.236ZM270.186 254.34V246.276H271.626L271.722 247.652C271.978 247.172 272.34 246.793 272.81 246.516C273.279 246.228 273.818 246.084 274.426 246.084C275.066 246.084 275.615 246.212 276.074 246.468C276.532 246.724 276.89 247.113 277.146 247.636C277.402 248.148 277.53 248.793 277.53 249.572V254.34H275.93V249.732C275.93 248.985 275.764 248.42 275.434 248.036C275.103 247.652 274.623 247.46 273.994 247.46C273.578 247.46 273.204 247.561 272.874 247.764C272.543 247.956 272.276 248.244 272.074 248.628C271.882 249.012 271.786 249.481 271.786 250.036V254.34H270.186ZM279.624 254.34V246.276H281.224V254.34H279.624ZM280.44 244.756C280.131 244.756 279.875 244.66 279.672 244.468C279.48 244.276 279.384 244.031 279.384 243.732C279.384 243.444 279.48 243.209 279.672 243.028C279.875 242.836 280.131 242.74 280.44 242.74C280.739 242.74 280.99 242.836 281.192 243.028C281.395 243.209 281.496 243.444 281.496 243.732C281.496 244.031 281.395 244.276 281.192 244.468C280.99 244.66 280.739 244.756 280.44 244.756ZM287.128 254.532C286.371 254.532 285.688 254.356 285.08 254.004C284.483 253.652 284.008 253.161 283.656 252.532C283.315 251.892 283.144 251.156 283.144 250.324C283.144 249.471 283.32 248.729 283.672 248.1C284.024 247.46 284.504 246.964 285.112 246.612C285.72 246.26 286.403 246.084 287.16 246.084C287.928 246.084 288.611 246.26 289.208 246.612C289.806 246.964 290.275 247.455 290.616 248.084C290.968 248.713 291.144 249.455 291.144 250.308C291.144 251.161 290.968 251.903 290.616 252.532C290.275 253.161 289.8 253.652 289.192 254.004C288.584 254.356 287.896 254.532 287.128 254.532ZM287.128 253.156C287.566 253.156 287.96 253.049 288.312 252.836C288.675 252.623 288.963 252.308 289.176 251.892C289.4 251.465 289.512 250.937 289.512 250.308C289.512 249.679 289.406 249.156 289.192 248.74C288.979 248.313 288.691 247.993 288.328 247.78C287.976 247.567 287.587 247.46 287.16 247.46C286.734 247.46 286.339 247.567 285.976 247.78C285.614 247.993 285.32 248.313 285.096 248.74C284.883 249.156 284.776 249.679 284.776 250.308C284.776 250.937 284.883 251.465 285.096 251.892C285.32 252.308 285.608 252.623 285.96 252.836C286.323 253.049 286.712 253.156 287.128 253.156ZM292.963 254.34V246.276H294.403L294.499 247.652C294.755 247.172 295.117 246.793 295.587 246.516C296.056 246.228 296.595 246.084 297.203 246.084C297.843 246.084 298.392 246.212 298.851 246.468C299.309 246.724 299.667 247.113 299.923 247.636C300.179 248.148 300.307 248.793 300.307 249.572V254.34H298.707V249.732C298.707 248.985 298.541 248.42 298.211 248.036C297.88 247.652 297.4 247.46 296.771 247.46C296.355 247.46 295.981 247.561 295.651 247.764C295.32 247.956 295.053 248.244 294.851 248.628C294.659 249.012 294.563 249.481 294.563 250.036V254.34H292.963ZM306.751 254.34V245.188C306.751 244.633 306.842 244.18 307.023 243.828C307.215 243.476 307.492 243.22 307.855 243.06C308.218 242.9 308.655 242.82 309.167 242.82H310.111V244.18H309.423C309.039 244.18 308.762 244.26 308.591 244.42C308.431 244.569 308.351 244.836 308.351 245.22V254.34H306.751ZM305.567 247.636V246.276H310.287V247.636H305.567ZM315.216 254.532C314.459 254.532 313.776 254.356 313.168 254.004C312.571 253.652 312.096 253.161 311.744 252.532C311.403 251.892 311.232 251.156 311.232 250.324C311.232 249.471 311.408 248.729 311.76 248.1C312.112 247.46 312.592 246.964 313.2 246.612C313.808 246.26 314.491 246.084 315.248 246.084C316.016 246.084 316.699 246.26 317.296 246.612C317.894 246.964 318.363 247.455 318.704 248.084C319.056 248.713 319.232 249.455 319.232 250.308C319.232 251.161 319.056 251.903 318.704 252.532C318.363 253.161 317.888 253.652 317.28 254.004C316.672 254.356 315.984 254.532 315.216 254.532ZM315.216 253.156C315.654 253.156 316.048 253.049 316.4 252.836C316.763 252.623 317.051 252.308 317.264 251.892C317.488 251.465 317.6 250.937 317.6 250.308C317.6 249.679 317.494 249.156 317.28 248.74C317.067 248.313 316.779 247.993 316.416 247.78C316.064 247.567 315.675 247.46 315.248 247.46C314.822 247.46 314.427 247.567 314.064 247.78C313.702 247.993 313.408 248.313 313.184 248.74C312.971 249.156 312.864 249.679 312.864 250.308C312.864 250.937 312.971 251.465 313.184 251.892C313.408 252.308 313.696 252.623 314.048 252.836C314.411 253.049 314.8 253.156 315.216 253.156ZM321.05 254.34V246.276H322.49L322.634 247.796C322.816 247.433 323.05 247.129 323.338 246.884C323.626 246.628 323.962 246.431 324.346 246.292C324.741 246.153 325.189 246.084 325.69 246.084V247.78H325.114C324.784 247.78 324.469 247.823 324.17 247.908C323.872 247.983 323.605 248.116 323.37 248.308C323.146 248.5 322.97 248.761 322.842 249.092C322.714 249.423 322.65 249.833 322.65 250.324V254.34H321.05ZM116.534 280.532C115.766 280.532 115.083 280.356 114.486 280.004C113.889 279.652 113.419 279.161 113.078 278.532C112.747 277.903 112.582 277.172 112.582 276.34C112.582 275.487 112.747 274.745 113.078 274.116C113.419 273.476 113.889 272.98 114.486 272.628C115.083 272.265 115.777 272.084 116.566 272.084C117.355 272.084 118.033 272.26 118.598 272.612C119.163 272.964 119.601 273.433 119.91 274.02C120.219 274.596 120.374 275.236 120.374 275.94C120.374 276.047 120.369 276.164 120.358 276.292C120.358 276.409 120.353 276.543 120.342 276.692H113.75V275.556H118.774C118.742 274.884 118.518 274.361 118.102 273.988C117.686 273.604 117.169 273.412 116.55 273.412C116.113 273.412 115.713 273.513 115.35 273.716C114.987 273.908 114.694 274.196 114.47 274.58C114.257 274.953 114.15 275.428 114.15 276.004V276.452C114.15 277.049 114.257 277.556 114.47 277.972C114.694 278.377 114.987 278.687 115.35 278.9C115.713 279.103 116.107 279.204 116.534 279.204C117.046 279.204 117.467 279.092 117.798 278.868C118.129 278.644 118.374 278.34 118.534 277.956H120.134C119.995 278.447 119.761 278.889 119.43 279.284C119.099 279.668 118.689 279.972 118.198 280.196C117.718 280.42 117.163 280.532 116.534 280.532ZM124.063 280.34L121.039 272.276H122.719L125.007 278.804L127.311 272.276H128.959L125.951 280.34H124.063ZM133.594 280.532C132.826 280.532 132.143 280.356 131.546 280.004C130.948 279.652 130.479 279.161 130.138 278.532C129.807 277.903 129.642 277.172 129.642 276.34C129.642 275.487 129.807 274.745 130.138 274.116C130.479 273.476 130.948 272.98 131.546 272.628C132.143 272.265 132.836 272.084 133.626 272.084C134.415 272.084 135.092 272.26 135.658 272.612C136.223 272.964 136.66 273.433 136.97 274.02C137.279 274.596 137.434 275.236 137.434 275.94C137.434 276.047 137.428 276.164 137.418 276.292C137.418 276.409 137.412 276.543 137.402 276.692H130.81V275.556H135.834C135.802 274.884 135.578 274.361 135.162 273.988C134.746 273.604 134.228 273.412 133.61 273.412C133.172 273.412 132.772 273.513 132.41 273.716C132.047 273.908 131.754 274.196 131.53 274.58C131.316 274.953 131.21 275.428 131.21 276.004V276.452C131.21 277.049 131.316 277.556 131.53 277.972C131.754 278.377 132.047 278.687 132.41 278.9C132.772 279.103 133.167 279.204 133.594 279.204C134.106 279.204 134.527 279.092 134.858 278.868C135.188 278.644 135.434 278.34 135.594 277.956H137.194C137.055 278.447 136.82 278.889 136.49 279.284C136.159 279.668 135.748 279.972 135.258 280.196C134.778 280.42 134.223 280.532 133.594 280.532ZM139.147 280.34V272.276H140.587L140.731 273.796C140.913 273.433 141.147 273.129 141.435 272.884C141.723 272.628 142.059 272.431 142.443 272.292C142.838 272.153 143.286 272.084 143.787 272.084V273.78H143.211C142.881 273.78 142.566 273.823 142.267 273.908C141.969 273.983 141.702 274.116 141.467 274.308C141.243 274.5 141.067 274.761 140.939 275.092C140.811 275.423 140.747 275.833 140.747 276.324V280.34H139.147ZM146.121 283.86L148.089 279.444H147.625L144.441 272.276H146.169L148.697 278.132L151.241 272.276H152.921L147.801 283.86H146.121ZM157.215 280.532C156.458 280.532 155.775 280.356 155.167 280.004C154.57 279.652 154.095 279.161 153.743 278.532C153.402 277.892 153.231 277.156 153.231 276.324C153.231 275.471 153.407 274.729 153.759 274.1C154.111 273.46 154.591 272.964 155.199 272.612C155.807 272.26 156.49 272.084 157.247 272.084C158.015 272.084 158.698 272.26 159.295 272.612C159.892 272.964 160.362 273.455 160.703 274.084C161.055 274.713 161.231 275.455 161.231 276.308C161.231 277.161 161.055 277.903 160.703 278.532C160.362 279.161 159.887 279.652 159.279 280.004C158.671 280.356 157.983 280.532 157.215 280.532ZM157.215 279.156C157.652 279.156 158.047 279.049 158.399 278.836C158.762 278.623 159.05 278.308 159.263 277.892C159.487 277.465 159.599 276.937 159.599 276.308C159.599 275.679 159.492 275.156 159.279 274.74C159.066 274.313 158.778 273.993 158.415 273.78C158.063 273.567 157.674 273.46 157.247 273.46C156.82 273.46 156.426 273.567 156.063 273.78C155.7 273.993 155.407 274.313 155.183 274.74C154.97 275.156 154.863 275.679 154.863 276.308C154.863 276.937 154.97 277.465 155.183 277.892C155.407 278.308 155.695 278.623 156.047 278.836C156.41 279.049 156.799 279.156 157.215 279.156ZM163.049 280.34V272.276H164.489L164.585 273.652C164.841 273.172 165.204 272.793 165.673 272.516C166.142 272.228 166.681 272.084 167.289 272.084C167.929 272.084 168.478 272.212 168.937 272.468C169.396 272.724 169.753 273.113 170.009 273.636C170.265 274.148 170.393 274.793 170.393 275.572V280.34H168.793V275.732C168.793 274.985 168.628 274.42 168.297 274.036C167.966 273.652 167.486 273.46 166.857 273.46C166.441 273.46 166.068 273.561 165.737 273.764C165.406 273.956 165.14 274.244 164.937 274.628C164.745 275.012 164.649 275.481 164.649 276.036V280.34H163.049ZM176.024 280.532C175.256 280.532 174.573 280.356 173.976 280.004C173.378 279.652 172.909 279.161 172.568 278.532C172.237 277.903 172.072 277.172 172.072 276.34C172.072 275.487 172.237 274.745 172.568 274.116C172.909 273.476 173.378 272.98 173.976 272.628C174.573 272.265 175.266 272.084 176.056 272.084C176.845 272.084 177.522 272.26 178.088 272.612C178.653 272.964 179.09 273.433 179.4 274.02C179.709 274.596 179.864 275.236 179.864 275.94C179.864 276.047 179.858 276.164 179.848 276.292C179.848 276.409 179.842 276.543 179.832 276.692H173.24V275.556H178.264C178.232 274.884 178.008 274.361 177.592 273.988C177.176 273.604 176.658 273.412 176.04 273.412C175.602 273.412 175.202 273.513 174.84 273.716C174.477 273.908 174.184 274.196 173.96 274.58C173.746 274.953 173.64 275.428 173.64 276.004V276.452C173.64 277.049 173.746 277.556 173.96 277.972C174.184 278.377 174.477 278.687 174.84 278.9C175.202 279.103 175.597 279.204 176.024 279.204C176.536 279.204 176.957 279.092 177.288 278.868C177.618 278.644 177.864 278.34 178.024 277.956H179.624C179.485 278.447 179.25 278.889 178.92 279.284C178.589 279.668 178.178 279.972 177.688 280.196C177.208 280.42 176.653 280.532 176.024 280.532ZM180.649 282.308L181.561 278.612H183.177L181.721 282.308H180.649ZM191.449 280.532C190.788 280.532 190.239 280.42 189.801 280.196C189.364 279.972 189.039 279.673 188.825 279.3C188.612 278.916 188.505 278.505 188.505 278.068C188.505 277.535 188.644 277.081 188.921 276.708C189.199 276.324 189.593 276.031 190.105 275.828C190.617 275.625 191.231 275.524 191.945 275.524H194.041C194.041 275.055 193.972 274.665 193.833 274.356C193.695 274.047 193.487 273.817 193.209 273.668C192.943 273.508 192.601 273.428 192.185 273.428C191.705 273.428 191.295 273.545 190.953 273.78C190.612 274.004 190.399 274.34 190.313 274.788H188.713C188.777 274.223 188.969 273.743 189.289 273.348C189.62 272.943 190.041 272.633 190.553 272.42C191.065 272.196 191.609 272.084 192.185 272.084C192.943 272.084 193.577 272.217 194.089 272.484C194.601 272.751 194.985 273.129 195.241 273.62C195.508 274.1 195.641 274.676 195.641 275.348V280.34H194.249L194.121 278.98C194.004 279.193 193.865 279.396 193.705 279.588C193.545 279.78 193.353 279.945 193.129 280.084C192.916 280.223 192.665 280.329 192.377 280.404C192.1 280.489 191.791 280.532 191.449 280.532ZM191.753 279.236C192.095 279.236 192.404 279.167 192.681 279.028C192.959 278.889 193.193 278.703 193.385 278.468C193.588 278.223 193.737 277.951 193.833 277.652C193.94 277.343 193.999 277.028 194.009 276.708V276.66H192.105C191.647 276.66 191.273 276.719 190.985 276.836C190.708 276.943 190.505 277.092 190.377 277.284C190.249 277.476 190.185 277.7 190.185 277.956C190.185 278.223 190.244 278.452 190.361 278.644C190.489 278.825 190.671 278.969 190.905 279.076C191.14 279.183 191.423 279.236 191.753 279.236ZM197.62 280.34V272.276H199.06L199.156 273.652C199.412 273.172 199.774 272.793 200.244 272.516C200.713 272.228 201.252 272.084 201.86 272.084C202.5 272.084 203.049 272.212 203.508 272.468C203.966 272.724 204.324 273.113 204.58 273.636C204.836 274.148 204.964 274.793 204.964 275.572V280.34H203.364V275.732C203.364 274.985 203.198 274.42 202.868 274.036C202.537 273.652 202.057 273.46 201.428 273.46C201.012 273.46 200.638 273.561 200.308 273.764C199.977 273.956 199.71 274.244 199.508 274.628C199.316 275.012 199.22 275.481 199.22 276.036V280.34H197.62ZM207.624 283.86L209.592 279.444H209.128L205.944 272.276H207.672L210.2 278.132L212.744 272.276H214.424L209.304 283.86H207.624ZM217.405 280.34L215.037 272.276H216.621L218.381 278.996L218.077 278.98L220.029 272.276H221.821L223.773 278.98L223.469 278.996L225.213 272.276H226.829L224.461 280.34H222.813L220.765 273.348H221.085L219.037 280.34H217.405ZM228.209 280.34V268.82H229.809V273.588C230.076 273.119 230.444 272.751 230.913 272.484C231.393 272.217 231.921 272.084 232.497 272.084C233.137 272.084 233.686 272.217 234.145 272.484C234.604 272.74 234.956 273.129 235.201 273.652C235.446 274.164 235.569 274.809 235.569 275.588V280.34H233.985V275.748C233.985 275.001 233.825 274.436 233.505 274.052C233.185 273.657 232.71 273.46 232.081 273.46C231.654 273.46 231.27 273.561 230.929 273.764C230.588 273.967 230.316 274.265 230.113 274.66C229.91 275.044 229.809 275.513 229.809 276.068V280.34H228.209ZM241.199 280.532C240.431 280.532 239.748 280.356 239.151 280.004C238.554 279.652 238.084 279.161 237.743 278.532C237.412 277.903 237.247 277.172 237.247 276.34C237.247 275.487 237.412 274.745 237.743 274.116C238.084 273.476 238.554 272.98 239.151 272.628C239.748 272.265 240.442 272.084 241.231 272.084C242.02 272.084 242.698 272.26 243.263 272.612C243.828 272.964 244.266 273.433 244.575 274.02C244.884 274.596 245.039 275.236 245.039 275.94C245.039 276.047 245.034 276.164 245.023 276.292C245.023 276.409 245.018 276.543 245.007 276.692H238.415V275.556H243.439C243.407 274.884 243.183 274.361 242.767 273.988C242.351 273.604 241.834 273.412 241.215 273.412C240.778 273.412 240.378 273.513 240.015 273.716C239.652 273.908 239.359 274.196 239.135 274.58C238.922 274.953 238.815 275.428 238.815 276.004V276.452C238.815 277.049 238.922 277.556 239.135 277.972C239.359 278.377 239.652 278.687 240.015 278.9C240.378 279.103 240.772 279.204 241.199 279.204C241.711 279.204 242.132 279.092 242.463 278.868C242.794 278.644 243.039 278.34 243.199 277.956H244.799C244.66 278.447 244.426 278.889 244.095 279.284C243.764 279.668 243.354 279.972 242.863 280.196C242.383 280.42 241.828 280.532 241.199 280.532ZM246.753 280.34V272.276H248.193L248.337 273.796C248.518 273.433 248.753 273.129 249.041 272.884C249.329 272.628 249.665 272.431 250.049 272.292C250.443 272.153 250.891 272.084 251.393 272.084V273.78H250.817C250.486 273.78 250.171 273.823 249.873 273.908C249.574 273.983 249.307 274.116 249.073 274.308C248.849 274.5 248.673 274.761 248.545 275.092C248.417 275.423 248.353 275.833 248.353 276.324V280.34H246.753ZM256.212 280.532C255.444 280.532 254.761 280.356 254.164 280.004C253.566 279.652 253.097 279.161 252.756 278.532C252.425 277.903 252.26 277.172 252.26 276.34C252.26 275.487 252.425 274.745 252.756 274.116C253.097 273.476 253.566 272.98 254.164 272.628C254.761 272.265 255.454 272.084 256.244 272.084C257.033 272.084 257.71 272.26 258.276 272.612C258.841 272.964 259.278 273.433 259.588 274.02C259.897 274.596 260.052 275.236 260.052 275.94C260.052 276.047 260.046 276.164 260.036 276.292C260.036 276.409 260.03 276.543 260.02 276.692H253.428V275.556H258.452C258.42 274.884 258.196 274.361 257.78 273.988C257.364 273.604 256.846 273.412 256.228 273.412C255.79 273.412 255.39 273.513 255.028 273.716C254.665 273.908 254.372 274.196 254.148 274.58C253.934 274.953 253.828 275.428 253.828 276.004V276.452C253.828 277.049 253.934 277.556 254.148 277.972C254.372 278.377 254.665 278.687 255.028 278.9C255.39 279.103 255.785 279.204 256.212 279.204C256.724 279.204 257.145 279.092 257.476 278.868C257.806 278.644 258.052 278.34 258.212 277.956H259.812C259.673 278.447 259.438 278.889 259.108 279.284C258.777 279.668 258.366 279.972 257.876 280.196C257.396 280.42 256.841 280.532 256.212 280.532ZM262.405 280.42C262.096 280.42 261.84 280.324 261.637 280.132C261.445 279.929 261.349 279.689 261.349 279.412C261.349 279.124 261.445 278.884 261.637 278.692C261.84 278.489 262.096 278.388 262.405 278.388C262.715 278.388 262.965 278.489 263.157 278.692C263.349 278.884 263.445 279.124 263.445 279.412C263.445 279.689 263.349 279.929 263.157 280.132C262.965 280.324 262.715 280.42 262.405 280.42Z" fill="#7B7B7B"/>
<rect x="37.9565" y="320.34" width="300" height="300" rx="150" fill="white"/>
<path fill-rule="evenodd" clip-rule="evenodd" d="M323.358 518.789C311.335 533.119 279.971 526.604 253.313 504.237C226.655 481.855 227.231 462.546 239.269 448.201C251.292 433.871 270.205 429.941 296.878 452.308C323.521 474.69 335.382 504.459 323.358 518.789Z" fill="#DEF5BA"/>
<path d="M314.241 490.158C309.742 490.158 305.419 488.252 302.365 484.84L283.379 463.61C280.753 460.67 279.307 456.888 279.307 452.944V442.676C279.307 441.568 280.207 440.682 281.299 440.682C282.405 440.682 283.29 441.583 283.29 442.676V452.944C283.29 455.898 284.367 458.735 286.344 460.936L305.331 482.166C307.986 485.12 311.91 486.583 315.834 486.051L323.211 485.061C324.302 484.928 325.306 485.682 325.453 486.775C325.601 487.868 324.833 488.873 323.742 489.021L316.366 490.01C315.672 490.099 314.949 490.158 314.241 490.158Z" fill="white"/>
<path fill-rule="evenodd" clip-rule="evenodd" d="M181.476 576.044C270.449 576.044 289.907 520.126 278.238 461.402C266.569 402.677 226.25 348.34 181.476 348.34C136.702 348.34 95.8524 398.969 84.729 461.402C73.6056 523.849 92.5036 576.044 181.476 576.044Z" fill="#DEF5BA"/>
<path fill-rule="evenodd" clip-rule="evenodd" d="M179.721 380.354H202.071C225.365 380.354 244.248 399.265 244.248 422.592C244.248 445.919 225.365 464.829 202.071 464.829H179.721C156.426 464.829 137.543 445.919 137.543 422.592C137.543 399.25 156.426 380.354 179.721 380.354Z" fill="#DEF5BA"/>
<path fill-rule="evenodd" clip-rule="evenodd" d="M184.958 376.676H207.308C230.602 376.676 249.485 395.586 249.485 418.913C249.485 442.241 230.602 461.151 207.308 461.151H184.958C161.664 461.151 142.78 442.241 142.78 418.913C142.78 395.586 161.664 376.676 184.958 376.676Z" fill="white"/>
<path d="M166.163 576.473C165.057 576.473 164.171 575.572 164.171 574.478V552.274C164.171 543.469 171.326 536.289 180.134 536.289H210.981C217.576 536.289 222.946 530.911 222.946 524.307V518.25C222.946 517.142 223.845 516.256 224.937 516.256C226.044 516.256 226.929 517.157 226.929 518.25V524.307C226.929 533.112 219.774 540.292 210.966 540.292H180.134C173.539 540.292 168.169 545.67 168.169 552.274V574.463C168.169 575.572 167.269 576.473 166.163 576.473Z" fill="#DEF5BA"/>
<path d="M224.937 475.998C223.83 475.998 222.945 475.097 222.945 474.004V472.615C222.945 467.104 227.415 462.628 232.918 462.628H277.235C278.341 462.628 279.226 463.529 279.226 464.622C279.226 465.73 278.326 466.617 277.235 466.617H232.918C229.613 466.617 226.928 469.306 226.928 472.615V474.004C226.928 475.112 226.043 475.998 224.937 475.998Z" fill="#DEF5BA"/>
<path fill-rule="evenodd" clip-rule="evenodd" d="M205.396 475.318L231.713 474.859C243.437 474.653 253.107 483.995 253.321 495.729C253.321 495.729 253.321 495.729 253.319 495.743C253.519 507.475 244.189 517.161 232.466 517.367L206.149 517.826C194.425 518.032 184.755 508.689 184.54 496.956C184.54 496.956 184.54 496.956 184.543 496.941C184.345 485.195 193.675 475.509 205.396 475.318Z" fill="#F9C6B2"/>
<path fill-rule="evenodd" clip-rule="evenodd" d="M211.668 474.835L237.473 474.391C249.332 474.179 259.13 483.649 259.336 495.516L259.334 495.531C259.537 507.413 250.083 517.212 238.211 517.406L212.406 517.851C200.547 518.063 190.761 508.61 190.54 496.74L190.543 496.726C190.339 484.844 199.794 475.045 211.668 474.835Z" fill="white"/>
<path d="M212.292 506.92C206.929 506.916 202.503 502.595 202.404 497.193C202.3 491.731 206.662 487.209 212.119 487.109L212.284 487.109C212.345 487.104 212.403 487.115 212.463 487.11C217.827 487.114 222.252 491.436 222.352 496.837C222.456 502.299 218.094 506.822 212.637 506.921L212.472 506.922C212.414 506.912 212.353 506.916 212.292 506.92ZM212.197 491.097C208.936 491.15 206.333 493.854 206.391 497.104C206.446 500.368 209.138 502.958 212.399 502.905L212.564 502.904C215.811 502.849 218.414 500.145 218.356 496.895C218.3 493.631 215.585 491.006 212.348 491.094L212.197 491.097Z" fill="#F9C6B2"/>
<path d="M228.76 493.686C227.698 493.678 226.811 492.846 226.774 491.775C226.728 490.673 227.581 489.744 228.682 489.699L243.824 489.048C244.926 489.003 245.854 489.857 245.9 490.959C245.946 492.062 245.093 492.99 243.992 493.036L228.85 493.686C228.821 493.681 228.792 493.676 228.76 493.686Z" fill="#F9C6B2"/>
<path d="M229.337 501.814C228.274 501.807 227.387 500.975 227.35 499.904C227.305 498.801 228.157 497.873 229.259 497.828L237.999 497.454C239.101 497.409 240.03 498.263 240.075 499.365C240.121 500.468 239.269 501.397 238.167 501.442L229.427 501.815C229.395 501.825 229.366 501.82 229.337 501.814Z" fill="#F9C6B2"/>
<path fill-rule="evenodd" clip-rule="evenodd" d="M194.553 402.376C197.149 402.376 199.259 404.489 199.259 407.089V408.684C199.259 411.284 197.149 413.397 194.553 413.397C191.956 413.397 189.847 411.284 189.847 408.684V407.089C189.847 404.489 191.956 402.376 194.553 402.376Z" fill="#F9C6B2"/>
<path fill-rule="evenodd" clip-rule="evenodd" d="M227.923 402.376C230.519 402.376 232.629 404.489 232.629 407.089V408.684C232.629 411.284 230.519 413.397 227.923 413.397C225.326 413.397 223.217 411.284 223.217 408.684V407.089C223.217 404.489 225.326 402.376 227.923 402.376Z" fill="#F9C6B2"/>
<path d="M207.402 434.332C202.032 434.332 197.666 429.959 197.666 424.581C197.666 423.473 198.565 422.587 199.657 422.587C200.764 422.587 201.649 423.488 201.649 424.581C201.649 427.757 204.23 430.343 207.402 430.343L216.327 430.269C219.514 430.239 222.081 427.713 222.17 424.522C222.199 423.414 223.128 422.557 224.22 422.587C225.327 422.616 226.182 423.532 226.153 424.64C226.005 429.988 221.697 434.213 216.357 434.273L207.402 434.332Z" fill="#7C7C7C"/>
<path fill-rule="evenodd" clip-rule="evenodd" d="M72.4924 538.076C88.676 547.428 115.865 530.586 133.243 500.448C150.622 470.31 143.482 452.375 127.298 443.009C111.115 433.672 92.0248 436.449 74.6463 466.587C57.2678 496.725 56.3089 528.725 72.4924 538.076Z" fill="#DEF5BA"/>
<path d="M111.011 528.769C110.215 528.769 109.447 528.281 109.152 527.484L103.414 512.562C102.248 509.534 102.514 506.195 104.151 503.388L116.086 482.809C117.989 479.544 121.515 477.505 125.292 477.505H141.033C142.139 477.505 143.024 478.406 143.024 479.499C143.024 480.593 142.124 481.494 141.033 481.494H125.277C122.917 481.494 120.718 482.764 119.523 484.803L107.589 505.383C106.571 507.141 106.408 509.224 107.131 511.115L112.87 526.065C113.268 527.1 112.752 528.252 111.719 528.651C111.483 528.725 111.247 528.769 111.011 528.769Z" fill="white"/>
<path d="M261.703 638.27C278.78 638.27 292.624 624.407 292.624 607.305C292.624 590.203 278.78 576.34 261.703 576.34C244.625 576.34 230.781 590.203 230.781 607.305C230.781 624.407 244.625 638.27 261.703 638.27Z" fill="#F9C6B2"/>
<path fill-rule="evenodd" clip-rule="evenodd" d="M247.595 590.34H275.712C277.266 590.34 278.526 591.597 278.526 593.149V596.42C278.526 597.972 277.266 599.229 275.712 599.229H247.595C246.041 599.229 244.781 597.972 244.781 596.42V593.149C244.781 591.597 246.041 590.34 247.595 590.34Z" fill="#7C7C7C"/>
<path fill-rule="evenodd" clip-rule="evenodd" d="M248.829 599.229H274.825V622.15C274.825 623.702 273.566 624.959 272.011 624.959H251.643C250.088 624.959 248.829 623.702 248.829 622.15V599.229Z" fill="white"/>
<path fill-rule="evenodd" clip-rule="evenodd" d="M253.686 603.437H271.021C271.792 603.437 272.422 604.065 272.422 604.835V613.724C272.422 614.493 271.792 615.122 271.021 615.122H253.686C252.915 615.122 252.286 614.493 252.286 613.724V604.835C252.286 604.065 252.915 603.437 253.686 603.437Z" fill="white"/>
<path d="M269.107 610.298H257.657C256.886 610.298 256.256 609.67 256.256 608.9C256.256 608.13 256.886 607.502 257.657 607.502H269.107C269.878 607.502 270.507 608.13 270.507 608.9C270.52 609.67 269.89 610.298 269.107 610.298Z" fill="#7C7C7C"/>
<path d="M94.5497 395.027C106.625 382.934 106.625 363.328 94.5497 351.235C82.4743 339.143 62.8961 339.143 50.8207 351.235C38.7453 363.328 38.7453 382.934 50.8207 395.027C62.8961 407.119 82.4743 407.119 94.5497 395.027Z" fill="#F9C6B2"/>
<path d="M75.9456 378.91H70.502V389.045H75.9456V378.91Z" fill="#7C7C7C"/>
<path fill-rule="evenodd" clip-rule="evenodd" d="M56.9442 355.302H89.5179C90.6243 355.302 91.5094 356.203 91.5094 357.296V378.23C91.5094 379.338 90.6095 380.225 89.5179 380.225H56.9442C55.8378 380.225 54.9526 379.323 54.9526 378.23V357.296C54.9526 356.203 55.8378 355.302 56.9442 355.302Z" fill="white"/>
<path d="M83.1596 391.246H63.9223C62.8158 391.246 61.9307 390.344 61.9307 389.251C61.9307 388.158 62.8306 387.257 63.9223 387.257H83.1596C84.266 387.257 85.1512 388.158 85.1512 389.251C85.1512 390.344 84.266 391.246 83.1596 391.246Z" fill="#7C7C7C"/>
<path d="M63.1404 374.699C62.624 374.699 62.1224 374.507 61.7241 374.109C60.9422 373.326 60.9422 372.07 61.7241 371.287L69.1299 363.87C69.9118 363.087 71.1657 363.087 71.9476 363.87L75.5767 367.505L81.7433 361.329C82.5252 360.546 83.7792 360.546 84.561 361.329C85.3429 362.112 85.3429 363.368 84.561 364.151L76.9782 371.745C76.1964 372.528 74.9424 372.528 74.1605 371.745L70.5461 368.125L64.5566 374.123C64.173 374.507 63.6567 374.699 63.1404 374.699Z" fill="#7C7C7C"/>
<path d="M338.55 423.027C350.626 410.934 350.626 391.328 338.55 379.235C326.475 367.143 306.897 367.143 294.821 379.235C282.746 391.328 282.746 410.934 294.821 423.027C306.897 435.119 326.475 435.119 338.55 423.027Z" fill="#F9C6B2"/>
<path fill-rule="evenodd" clip-rule="evenodd" d="M308.299 411.314C304.198 407.281 302.605 402.524 303.49 397.073C304.818 388.888 313.433 385.328 319.939 387.381C326.445 389.435 329.174 393.172 329.956 398.831C330.472 402.613 328.864 406.764 325.102 411.314L323.73 413.604V417.962C323.73 421.818 320.618 424.935 316.767 424.935C312.917 424.935 309.804 421.818 309.804 417.962V414.106L308.299 411.314Z" fill="white"/>
<path fill-rule="evenodd" clip-rule="evenodd" d="M314.805 402.79H311.81C311.442 402.79 311.146 402.494 311.146 402.125C311.146 401.992 311.191 401.859 311.264 401.756L316.531 394.044C316.738 393.734 317.151 393.66 317.461 393.867C317.638 393.985 317.756 394.192 317.756 394.413V398.003C317.756 398.373 318.051 398.668 318.419 398.668H320.927C321.296 398.668 321.591 398.963 321.591 399.333C321.591 399.466 321.562 399.584 321.488 399.687L316.708 407.266C316.516 407.576 316.103 407.665 315.794 407.473C315.602 407.355 315.484 407.133 315.484 406.912V403.469C315.469 403.1 315.174 402.79 314.805 402.79Z" fill="#7C7C7C"/>
<path fill-rule="evenodd" clip-rule="evenodd" d="M333.084 397.028L336.064 396.511C336.875 396.364 337.657 396.91 337.79 397.723C337.937 398.535 337.392 399.304 336.58 399.451L333.6 399.968C332.789 400.116 332.007 399.57 331.874 398.757C331.727 397.944 332.272 397.176 333.084 397.028Z" fill="#7C7C7C"/>
<path fill-rule="evenodd" clip-rule="evenodd" d="M328.215 386.347L329.986 383.939C330.472 383.274 331.417 383.111 332.095 383.599C332.759 384.086 332.907 385.017 332.434 385.682C332.434 385.682 332.434 385.682 332.434 385.697L330.664 388.105C330.177 388.77 329.233 388.932 328.555 388.445C327.891 387.957 327.728 387.026 328.215 386.347C328.215 386.362 328.215 386.362 328.215 386.347Z" fill="#7C7C7C"/>
<path fill-rule="evenodd" clip-rule="evenodd" d="M315.425 382.565V380.172C315.425 379.167 316.236 378.34 317.254 378.34C318.272 378.34 319.083 379.152 319.083 380.172V382.565C319.083 383.57 318.272 384.397 317.254 384.397C316.236 384.397 315.425 383.57 315.425 382.565Z" fill="#7C7C7C"/>
<path fill-rule="evenodd" clip-rule="evenodd" d="M302.236 387.647L300.112 385.534C299.522 384.958 299.522 384.013 300.097 383.422C300.097 383.422 300.097 383.422 300.112 383.407C300.702 382.816 301.646 382.816 302.236 383.407L304.361 385.52C304.951 386.096 304.951 387.041 304.375 387.632C304.375 387.632 304.375 387.632 304.361 387.647C303.771 388.223 302.826 388.223 302.236 387.647Z" fill="#7C7C7C"/>
<path fill-rule="evenodd" clip-rule="evenodd" d="M299.345 398.609L296.32 398.343C295.494 398.269 294.889 397.545 294.963 396.732C295.037 395.905 295.76 395.299 296.586 395.373L299.61 395.639C300.436 395.713 301.041 396.437 300.967 397.25C300.894 398.077 300.171 398.683 299.345 398.609Z" fill="#7C7C7C"/>
<path d="M322.123 415.688C322.108 415.688 322.108 415.688 322.123 415.688L311.457 415.628C310.35 415.628 309.465 414.727 309.48 413.619C309.48 412.526 310.38 411.64 311.471 411.64C311.471 411.64 311.471 411.64 311.486 411.64L322.137 411.699C323.244 411.699 324.129 412.6 324.114 413.708C324.099 414.801 323.214 415.688 322.123 415.688Z" fill="#7C7C7C"/>
<path d="M319.688 422.882H313.831C312.725 422.882 311.84 421.981 311.84 420.888C311.84 419.795 312.74 418.894 313.831 418.894H319.688C320.795 418.894 321.68 419.795 321.68 420.888C321.68 421.981 320.78 422.882 319.688 422.882Z" fill="#7C7C7C"/>
<path d="M272.991 345.12C270.078 346.802 266.291 346.498 263.674 344.119C263.492 343.951 263.285 343.798 263.079 343.678C262.214 343.154 261.194 343.009 260.21 343.253C259.227 343.497 258.404 344.108 257.882 344.973L257.707 345.261C257.575 345.474 257.442 345.687 257.29 345.895C255.917 347.796 253.89 349.035 251.572 349.417C249.261 349.78 246.933 349.23 245.044 347.847L244.096 347.149C243.924 347.027 243.745 346.925 243.567 346.823C242.626 346.343 241.557 346.261 240.559 346.598C239.554 346.923 238.75 347.625 238.271 348.567C238.07 348.956 237.842 349.327 237.598 349.672C236.353 351.381 234.522 352.489 232.439 352.804C230.356 353.12 228.276 352.615 226.567 351.367L223.502 349.128C222.617 348.479 222.422 347.227 223.069 346.341C223.716 345.456 224.967 345.262 225.853 345.911L228.917 348.151C229.755 348.776 230.789 349.032 231.817 348.865C232.852 348.711 233.757 348.154 234.381 347.316C234.503 347.144 234.617 346.958 234.711 346.767C235.661 344.871 237.301 343.464 239.311 342.815C241.327 342.146 243.473 342.323 245.369 343.275C245.73 343.459 246.101 343.688 246.447 343.932L247.408 344.623C248.438 345.375 249.699 345.671 250.963 345.47C252.227 345.269 253.329 344.582 254.08 343.551C254.153 343.441 254.238 343.324 254.311 343.213L254.485 342.925C255.554 341.148 257.243 339.883 259.268 339.379C261.281 338.882 263.382 339.187 265.16 340.259C265.598 340.518 266.014 340.824 266.385 341.172C268.002 342.644 270.507 342.528 271.976 340.913C272.118 340.745 272.26 340.578 272.387 340.385L274.278 337.434C274.87 336.512 276.109 336.24 277.031 336.834C277.953 337.427 278.24 338.661 277.635 339.59L275.744 342.541C275.503 342.919 275.233 343.28 274.929 343.609C274.325 344.214 273.681 344.722 272.991 345.12Z" fill="#D3F4FF"/>
<path d="M38.59 452.634C33.279 452.634 28.9565 448.305 28.9565 442.987C28.9565 437.668 33.279 433.34 38.59 433.34C43.9009 433.34 48.2234 437.668 48.2234 442.987C48.2381 448.291 43.9009 452.634 38.59 452.634ZM38.59 437.314C35.4772 437.314 32.9397 439.855 32.9397 442.972C32.9397 446.089 35.4772 448.63 38.59 448.63C41.7027 448.63 44.2402 446.089 44.2402 442.972C44.2402 439.855 41.7027 437.314 38.59 437.314Z" fill="#A28FFF"/>
<path d="M60.1302 606.305C59.5548 606.305 58.9942 606.068 58.5959 605.595C57.8878 604.753 57.9911 603.483 58.8467 602.788L90.0483 576.565C91.5826 575.28 92.512 573.478 92.6891 571.483C92.8661 569.489 92.2465 567.554 90.963 566.017C89.6795 564.481 87.8797 563.55 85.8881 563.373C83.8965 563.195 81.964 563.816 80.4297 565.101L49.228 591.324C48.3872 592.033 47.1332 591.93 46.4251 591.073C45.7169 590.231 45.8202 588.96 46.6759 588.266L77.8775 562.028C80.2232 560.063 83.1884 559.118 86.2422 559.384C89.296 559.65 92.0547 561.098 94.0168 563.432C95.9789 565.781 96.923 568.75 96.6575 571.808C96.3919 574.867 94.9462 577.629 92.6005 579.594L61.3989 605.832C61.0301 606.157 60.5728 606.305 60.1302 606.305Z" fill="#DEF5BA"/>
<path d="M184.921 631.982C178.326 631.982 172.957 626.457 172.957 619.661C172.957 612.865 178.326 607.34 184.921 607.34C186.027 607.34 186.912 608.241 186.912 609.334C186.912 610.442 186.013 611.329 184.921 611.329C180.525 611.329 176.94 615.066 176.94 619.646C176.94 624.241 180.525 627.964 184.921 627.964C186.027 627.964 186.912 628.865 186.912 629.958C186.912 631.051 186.027 631.982 184.921 631.982Z" fill="#D3F4FF"/>
<rect x="70.9565" y="652.34" width="234" height="50" rx="25" fill="#252727"/>
<path d="M131.05 683.032C129.994 683.032 129.072 682.797 128.282 682.328C127.493 681.848 126.874 681.181 126.426 680.328C125.989 679.464 125.77 678.461 125.77 677.32C125.77 676.168 125.994 675.155 126.442 674.28C126.901 673.395 127.552 672.701 128.394 672.2C129.237 671.699 130.24 671.448 131.402 671.448C132.725 671.448 133.818 671.763 134.682 672.392C135.557 673.021 136.122 673.896 136.378 675.016H133.962C133.802 674.525 133.504 674.141 133.066 673.864C132.64 673.576 132.085 673.432 131.402 673.432C130.666 673.432 130.042 673.592 129.53 673.912C129.029 674.232 128.645 674.68 128.378 675.256C128.112 675.832 127.978 676.52 127.978 677.32C127.978 678.131 128.112 678.819 128.378 679.384C128.645 679.949 129.024 680.381 129.514 680.68C130.016 680.968 130.602 681.112 131.274 681.112C132.256 681.112 132.997 680.851 133.498 680.328C134.01 679.795 134.314 679.107 134.41 678.264H131.658V676.648H136.586V682.84H134.586L134.426 681.416C134.181 681.768 133.904 682.067 133.594 682.312C133.285 682.547 132.922 682.723 132.506 682.84C132.09 682.968 131.605 683.032 131.05 683.032ZM142.416 683.032C141.605 683.032 140.885 682.861 140.256 682.52C139.637 682.168 139.152 681.683 138.8 681.064C138.458 680.435 138.288 679.715 138.288 678.904C138.288 678.061 138.458 677.32 138.8 676.68C139.141 676.04 139.621 675.539 140.24 675.176C140.869 674.803 141.594 674.616 142.416 674.616C143.216 674.616 143.914 674.792 144.512 675.144C145.109 675.485 145.573 675.955 145.904 676.552C146.245 677.149 146.416 677.827 146.416 678.584C146.416 678.691 146.41 678.813 146.4 678.952C146.4 679.08 146.394 679.213 146.384 679.352H139.824V678.024H144.224C144.202 677.523 144.021 677.123 143.68 676.824C143.338 676.515 142.922 676.36 142.432 676.36C142.058 676.36 141.717 676.445 141.408 676.616C141.098 676.787 140.853 677.043 140.672 677.384C140.501 677.715 140.416 678.136 140.416 678.648V679.112C140.416 679.549 140.496 679.933 140.656 680.264C140.826 680.584 141.061 680.835 141.36 681.016C141.658 681.187 142.005 681.272 142.4 681.272C142.794 681.272 143.12 681.187 143.376 681.016C143.642 680.845 143.845 680.621 143.984 680.344H146.176C146.026 680.856 145.776 681.315 145.424 681.72C145.072 682.125 144.64 682.445 144.128 682.68C143.616 682.915 143.045 683.032 142.416 683.032ZM151.675 682.84C151.121 682.84 150.63 682.755 150.203 682.584C149.777 682.403 149.446 682.109 149.211 681.704C148.977 681.288 148.859 680.723 148.859 680.008V676.616H147.483V674.808H148.859L149.115 672.616H151.019V674.808H153.147V676.616H151.019V680.04C151.019 680.403 151.099 680.653 151.259 680.792C151.419 680.931 151.691 681 152.075 681H153.115V682.84H151.675ZM162.62 683.032C161.809 683.032 161.084 682.893 160.444 682.616C159.804 682.339 159.302 681.933 158.94 681.4C158.577 680.867 158.385 680.221 158.364 679.464H160.652C160.662 679.795 160.748 680.093 160.908 680.36C161.068 680.627 161.292 680.84 161.58 681C161.868 681.149 162.209 681.224 162.604 681.224C162.945 681.224 163.238 681.171 163.484 681.064C163.74 680.947 163.937 680.787 164.076 680.584C164.214 680.381 164.284 680.141 164.284 679.864C164.284 679.544 164.204 679.277 164.044 679.064C163.894 678.851 163.681 678.669 163.404 678.52C163.126 678.36 162.806 678.221 162.444 678.104C162.092 677.976 161.718 677.848 161.324 677.72C160.449 677.432 159.777 677.048 159.308 676.568C158.849 676.088 158.62 675.453 158.62 674.664C158.62 673.992 158.78 673.416 159.1 672.936C159.43 672.456 159.878 672.088 160.444 671.832C161.02 671.576 161.681 671.448 162.428 671.448C163.185 671.448 163.846 671.581 164.412 671.848C164.988 672.104 165.441 672.477 165.772 672.968C166.102 673.459 166.278 674.035 166.3 674.696H163.98C163.98 674.451 163.91 674.221 163.772 674.008C163.644 673.784 163.462 673.608 163.228 673.48C162.993 673.341 162.716 673.272 162.396 673.272C162.108 673.261 161.852 673.304 161.628 673.4C161.404 673.496 161.222 673.64 161.084 673.832C160.956 674.013 160.892 674.243 160.892 674.52C160.892 674.787 160.956 675.011 161.084 675.192C161.212 675.373 161.393 675.533 161.628 675.672C161.873 675.8 162.15 675.923 162.46 676.04C162.78 676.147 163.126 676.259 163.5 676.376C164.065 676.568 164.577 676.797 165.036 677.064C165.505 677.32 165.878 677.656 166.156 678.072C166.433 678.488 166.572 679.037 166.572 679.72C166.572 680.307 166.417 680.851 166.108 681.352C165.809 681.853 165.366 682.259 164.78 682.568C164.193 682.877 163.473 683.032 162.62 683.032ZM171.972 682.84C171.418 682.84 170.927 682.755 170.5 682.584C170.074 682.403 169.743 682.109 169.508 681.704C169.274 681.288 169.156 680.723 169.156 680.008V676.616H167.78V674.808H169.156L169.412 672.616H171.316V674.808H173.444V676.616H171.316V680.04C171.316 680.403 171.396 680.653 171.556 680.792C171.716 680.931 171.988 681 172.372 681H173.412V682.84H171.972ZM177.967 683.032C177.295 683.032 176.74 682.925 176.303 682.712C175.866 682.488 175.54 682.195 175.327 681.832C175.114 681.459 175.007 681.053 175.007 680.616C175.007 680.115 175.13 679.683 175.375 679.32C175.631 678.947 176.015 678.653 176.527 678.44C177.039 678.227 177.679 678.12 178.447 678.12H180.447C180.447 677.725 180.394 677.4 180.287 677.144C180.18 676.888 180.015 676.696 179.791 676.568C179.567 676.44 179.268 676.376 178.895 676.376C178.49 676.376 178.143 676.467 177.855 676.648C177.578 676.819 177.402 677.085 177.327 677.448H175.231C175.295 676.872 175.487 676.376 175.807 675.96C176.138 675.533 176.57 675.203 177.103 674.968C177.636 674.733 178.239 674.616 178.911 674.616C179.668 674.616 180.324 674.744 180.879 675C181.434 675.245 181.86 675.613 182.159 676.104C182.458 676.584 182.607 677.171 182.607 677.864V682.84H180.783L180.543 681.608C180.426 681.821 180.287 682.013 180.127 682.184C179.967 682.355 179.78 682.504 179.567 682.632C179.354 682.76 179.114 682.856 178.847 682.92C178.58 682.995 178.287 683.032 177.967 683.032ZM178.479 681.368C178.756 681.368 179.002 681.32 179.215 681.224C179.439 681.117 179.631 680.979 179.791 680.808C179.951 680.627 180.074 680.424 180.159 680.2C180.255 679.965 180.319 679.72 180.351 679.464V679.448H178.703C178.372 679.448 178.1 679.491 177.887 679.576C177.684 679.651 177.535 679.763 177.439 679.912C177.343 680.061 177.295 680.232 177.295 680.424C177.295 680.627 177.343 680.797 177.439 680.936C177.535 681.075 177.674 681.181 177.855 681.256C178.036 681.331 178.244 681.368 178.479 681.368ZM184.606 682.84V674.808H186.526L186.718 676.296C186.921 675.944 187.166 675.645 187.454 675.4C187.742 675.144 188.073 674.952 188.446 674.824C188.83 674.685 189.252 674.616 189.71 674.616V676.904H188.99C188.67 676.904 188.372 676.941 188.094 677.016C187.828 677.08 187.593 677.197 187.39 677.368C187.188 677.539 187.033 677.768 186.926 678.056C186.82 678.344 186.766 678.707 186.766 679.144V682.84H184.606ZM194.738 682.84C194.183 682.84 193.693 682.755 193.266 682.584C192.839 682.403 192.509 682.109 192.274 681.704C192.039 681.288 191.922 680.723 191.922 680.008V676.616H190.546V674.808H191.922L192.178 672.616H194.082V674.808H196.21V676.616H194.082V680.04C194.082 680.403 194.162 680.653 194.322 680.792C194.482 680.931 194.754 681 195.138 681H196.178V682.84H194.738ZM201.681 683.032C200.871 683.032 200.151 682.861 199.521 682.52C198.903 682.168 198.417 681.683 198.065 681.064C197.724 680.435 197.553 679.715 197.553 678.904C197.553 678.061 197.724 677.32 198.065 676.68C198.407 676.04 198.887 675.539 199.505 675.176C200.135 674.803 200.86 674.616 201.681 674.616C202.481 674.616 203.18 674.792 203.777 675.144C204.375 675.485 204.839 675.955 205.169 676.552C205.511 677.149 205.681 677.827 205.681 678.584C205.681 678.691 205.676 678.813 205.665 678.952C205.665 679.08 205.66 679.213 205.649 679.352H199.089V678.024H203.489C203.468 677.523 203.287 677.123 202.945 676.824C202.604 676.515 202.188 676.36 201.697 676.36C201.324 676.36 200.983 676.445 200.673 676.616C200.364 676.787 200.119 677.043 199.937 677.384C199.767 677.715 199.681 678.136 199.681 678.648V679.112C199.681 679.549 199.761 679.933 199.921 680.264C200.092 680.584 200.327 680.835 200.625 681.016C200.924 681.187 201.271 681.272 201.665 681.272C202.06 681.272 202.385 681.187 202.641 681.016C202.908 680.845 203.111 680.621 203.249 680.344H205.441C205.292 680.856 205.041 681.315 204.689 681.72C204.337 682.125 203.905 682.445 203.393 682.68C202.881 682.915 202.311 683.032 201.681 683.032ZM211.018 683.032C210.293 683.032 209.637 682.851 209.05 682.488C208.464 682.125 208.005 681.629 207.674 681C207.344 680.36 207.178 679.635 207.178 678.824C207.178 678.013 207.344 677.293 207.674 676.664C208.016 676.024 208.48 675.523 209.066 675.16C209.664 674.797 210.33 674.616 211.066 674.616C211.653 674.616 212.16 674.723 212.586 674.936C213.024 675.149 213.376 675.453 213.642 675.848V671.32H215.802V682.84H213.882L213.642 681.736C213.482 681.96 213.28 682.173 213.034 682.376C212.8 682.579 212.517 682.739 212.186 682.856C211.856 682.973 211.466 683.032 211.018 683.032ZM211.53 681.144C211.957 681.144 212.33 681.048 212.65 680.856C212.981 680.653 213.237 680.376 213.418 680.024C213.61 679.672 213.706 679.272 213.706 678.824C213.706 678.365 213.61 677.96 213.418 677.608C213.237 677.256 212.981 676.984 212.65 676.792C212.33 676.6 211.957 676.504 211.53 676.504C211.125 676.504 210.757 676.6 210.426 676.792C210.096 676.984 209.834 677.256 209.642 677.608C209.461 677.96 209.37 678.36 209.37 678.808C209.37 679.267 209.461 679.672 209.642 680.024C209.834 680.376 210.096 680.653 210.426 680.856C210.757 681.048 211.125 681.144 211.53 681.144Z" fill="#F6F6F6"/>
<path d="M228.957 677.34L247.957 677.34" stroke="white" stroke-width="2" stroke-linejoin="round"/>
<path d="M243.509 683.135C244.785 682.794 245.913 682.04 246.717 680.992C247.521 679.945 247.957 678.661 247.957 677.34C247.957 676.019 247.521 674.735 246.717 673.687C245.913 672.639 244.785 671.886 243.509 671.544" stroke="white" stroke-width="2" stroke-linejoin="round"/>
</g>
<defs>
<clipPath id="clip0_5_9880">
<rect width="375" height="812" fill="white" transform="translate(0.456543 0.268066)"/>
</clipPath>
</defs>
</svg>
